<svg width="111" height="26" viewBox="0 0 111 26" fill="none" xmlns="http://www.w3.org/2000/svg">
<path d="M14.9636 23.9991C21.0232 22.8941 25.0419 17.0738 23.9396 10.9991C22.8373 4.92446 17.0314 0.895797 10.9718 2.00084C4.91226 3.10589 0.893595 8.92619 1.9959 15.0008C3.0982 21.0755 8.90406 25.1042 14.9636 23.9991Z" fill="#FFC629" stroke="#002E6D" stroke-width="0.79"/>
<path d="M4.47543 8.74552L3.61072 8.19574L3.7306 8.00652L4.48562 8.17273L4.64122 8.20853C4.61572 8.17784 4.58 8.13181 4.53409 8.07044L4.07496 7.4593L4.18208 7.29053L5.04679 7.8403L4.97027 7.96049L4.24585 7.50021L4.79427 8.23665L4.72285 8.34917L3.81223 8.15483L4.54939 8.62278L4.47287 8.74296L4.47543 8.74552Z" fill="#53575A"/>
<path d="M4.48562 7.13202L4.36829 7.04508L4.44991 6.93512L4.56724 7.02206L4.48562 7.13202ZM5.19473 7.65367L4.59785 7.21384L4.67948 7.10389L5.27635 7.54627L5.19473 7.65622V7.65367Z" fill="#53575A"/>
<path d="M5.41157 7.35445L4.83765 6.88139L4.91672 6.78678L4.99835 6.85326C4.98559 6.80467 4.98559 6.75609 4.99835 6.71006C5.0111 6.66403 5.03406 6.61801 5.06977 6.57454C5.09782 6.54129 5.12844 6.51317 5.1616 6.49271C5.19476 6.47225 5.22791 6.45947 5.25852 6.45435C5.28913 6.44924 5.31974 6.45435 5.3529 6.46714C5.38606 6.47992 5.42943 6.50805 5.48044 6.55152L5.83244 6.84303L5.74571 6.95043L5.39626 6.66148C5.3529 6.62568 5.31974 6.60522 5.29168 6.60011C5.26362 6.59244 5.23811 6.59499 5.21005 6.60778C5.182 6.62056 5.15905 6.63846 5.13609 6.66659C5.09528 6.71773 5.07487 6.76888 5.07742 6.82257C5.07997 6.87627 5.11823 6.93253 5.1871 6.98879L5.50084 7.24705L5.41412 7.35189L5.41157 7.35445Z" fill="#53575A"/>
<path d="M5.34004 6.07843L5.23291 5.98126L5.32473 5.88153L5.43187 5.98126L5.34004 6.08098V6.07843ZM5.98538 6.67679L5.43952 6.17304L5.53134 6.07331L6.07721 6.57706L5.98538 6.67679Z" fill="#53575A"/>
<path d="M6.0466 6.28306L6.13077 6.17311C6.17159 6.20379 6.21495 6.21658 6.25831 6.21146C6.30167 6.20379 6.34504 6.18078 6.3884 6.13987C6.43177 6.09895 6.45727 6.05804 6.46492 6.01968C6.47257 5.98132 6.46492 5.95064 6.44197 5.92507C6.42156 5.90461 6.39606 5.89694 6.36545 5.90461C6.34504 5.90973 6.30168 5.93274 6.23536 5.9711C6.14098 6.02735 6.07465 6.06315 6.03894 6.07594C6.00068 6.08872 5.96497 6.09128 5.93181 6.08361C5.8961 6.07594 5.86804 6.06059 5.84254 6.03247C5.79917 5.98644 5.78132 5.93018 5.79407 5.8637C5.80427 5.79721 5.84509 5.73073 5.91396 5.66424C5.95732 5.62333 6.00069 5.59009 6.04405 5.57219C6.08741 5.55173 6.12822 5.54406 6.16393 5.54662C6.19965 5.54917 6.24046 5.56707 6.28127 5.59776L6.1971 5.7026C6.13078 5.65402 6.0619 5.66424 5.98538 5.7384C5.94202 5.77931 5.91651 5.81767 5.90886 5.85091C5.90121 5.88416 5.90631 5.90973 5.92416 5.93018C5.94202 5.95064 5.96752 5.95575 6.00068 5.94808C6.01854 5.94297 6.06445 5.91995 6.13843 5.87648C6.24046 5.81767 6.30677 5.78187 6.34248 5.76909C6.37819 5.7563 6.41136 5.75374 6.44452 5.76141C6.47768 5.76908 6.50573 5.78443 6.53379 5.81256C6.58225 5.8637 6.60011 5.92507 6.58736 5.99922C6.57461 6.07338 6.53124 6.14498 6.45727 6.21658C6.31698 6.3521 6.18179 6.37256 6.04915 6.28051L6.0466 6.28306Z" fill="#53575A"/>
<path d="M6.9802 5.5722L7.06693 5.6438C7.04397 5.67449 7.01846 5.70006 6.9955 5.71796C6.95979 5.74864 6.92408 5.7691 6.89347 5.77677C6.86286 5.78444 6.83481 5.78444 6.8093 5.77166C6.78379 5.75887 6.74808 5.72563 6.70216 5.66937L6.42413 5.34462L6.34761 5.41111L6.28384 5.33695L6.36036 5.27046L6.24048 5.12982L6.2966 4.98407L6.46495 5.18097L6.56953 5.09147L6.6333 5.16562L6.52872 5.25512L6.8093 5.58499C6.83481 5.61567 6.85521 5.63357 6.86796 5.63613C6.88837 5.64124 6.90878 5.63357 6.93428 5.61312C6.94704 5.60289 6.9598 5.58754 6.97765 5.56965L6.9802 5.5722Z" fill="#53575A"/>
<path d="M7.16902 5.56706L6.71753 4.97636L6.81701 4.89965L6.88588 4.98915C6.87823 4.92778 6.88078 4.88431 6.89099 4.85362C6.90119 4.82294 6.91905 4.79992 6.9471 4.77947C6.98281 4.75134 7.02873 4.73344 7.08229 4.72577L7.11545 4.84595C7.07719 4.85362 7.04658 4.86641 7.01852 4.88431C6.99557 4.90221 6.97771 4.92522 6.97006 4.95079C6.95986 4.97892 6.95986 5.00449 6.97006 5.03262C6.98536 5.08121 7.01087 5.12723 7.04148 5.1707L7.2787 5.48011L7.16902 5.5645V5.56706Z" fill="#53575A"/>
<path d="M7.75569 5.48009L7.67917 5.39059C7.70978 5.38036 7.73273 5.37013 7.75059 5.35735C7.77609 5.342 7.79395 5.3241 7.80415 5.3062C7.81435 5.2883 7.82201 5.26785 7.82201 5.24483C7.82201 5.23716 7.81436 5.19369 7.79905 5.11187L7.1333 4.65926L7.25829 4.57743L7.6358 4.84337C7.68171 4.87661 7.73018 4.91497 7.77864 4.95588C7.76079 4.89963 7.74548 4.84081 7.73273 4.78456L7.64091 4.32683L7.75569 4.25012L7.91129 5.05305C7.93169 5.15789 7.93934 5.22949 7.93934 5.27041C7.93934 5.31132 7.92914 5.34456 7.91129 5.37269C7.89343 5.40082 7.87047 5.42639 7.83986 5.44684C7.81691 5.46219 7.7914 5.47242 7.75824 5.48264L7.75569 5.48009Z" fill="#53575A"/>
<path d="M8.46988 4.27063C8.41631 4.15301 8.40866 4.05072 8.44437 3.96122C8.48263 3.87172 8.5515 3.80268 8.65098 3.75666C8.74791 3.71063 8.84484 3.70296 8.93921 3.73108C9.03359 3.75921 9.10501 3.83081 9.15602 3.94077C9.21214 4.06095 9.22235 4.16835 9.18408 4.25785C9.14582 4.34735 9.07695 4.41639 8.97747 4.46242C8.87799 4.50844 8.78361 4.51611 8.68924 4.48799C8.59486 4.45986 8.52344 4.3857 8.46988 4.27063ZM8.59741 4.21182C8.63823 4.29876 8.68923 4.35502 8.75045 4.37803C8.81167 4.40104 8.87544 4.39849 8.93666 4.3678C8.99533 4.33967 9.03614 4.2962 9.05655 4.23228C9.0795 4.17091 9.0693 4.09419 9.02848 4.00981C8.98767 3.92287 8.93666 3.86917 8.87544 3.84615C8.81423 3.82314 8.75045 3.8257 8.68924 3.85638C8.63057 3.88451 8.58975 3.92798 8.5668 3.99191C8.54384 4.05328 8.55405 4.12743 8.59486 4.21438L8.59741 4.21182Z" fill="#53575A"/>
<path d="M9.52329 4.21176L9.29883 3.60572L9.18404 3.64919L9.15088 3.55714L9.26567 3.51367L9.2376 3.43951C9.2172 3.38581 9.20955 3.33978 9.21465 3.3091C9.21975 3.27586 9.23505 3.24773 9.26056 3.2196C9.28607 3.19403 9.32178 3.17101 9.37025 3.15312C9.40596 3.14033 9.44932 3.12754 9.49523 3.11987L9.51563 3.22983C9.48758 3.23494 9.46207 3.24261 9.43656 3.25284C9.3983 3.26819 9.3728 3.28608 9.3626 3.30654C9.35239 3.327 9.35494 3.36024 9.37025 3.40115L9.3932 3.46508L9.54114 3.40883L9.57431 3.50088L9.42636 3.55714L9.65082 4.16317L9.52329 4.21176Z" fill="#53575A"/>
<path d="M10.3651 3.92538L10.1458 2.923L10.2911 2.89231L10.3804 3.304L10.9492 3.17871L10.86 2.76701L11.0054 2.73633L11.2247 3.73871L11.0793 3.7694L10.9773 3.29633L10.4085 3.42163L10.5105 3.89469L10.3651 3.92538Z" fill="#53575A"/>
<path d="M12.0001 3.40627H12.143C12.1277 3.48809 12.092 3.55202 12.0333 3.60061C11.9772 3.64663 11.9032 3.67476 11.8114 3.68499C11.6966 3.69777 11.6022 3.67476 11.5231 3.61595C11.4466 3.55713 11.4007 3.46764 11.388 3.34489C11.3752 3.21704 11.4007 3.11731 11.4645 3.0406C11.5282 2.96644 11.615 2.92297 11.7247 2.91019C11.8292 2.89996 11.9185 2.92297 11.9976 2.98179C12.0741 3.0406 12.12 3.13266 12.1328 3.25795V3.2912L11.5333 3.35512C11.5487 3.43695 11.5793 3.49832 11.6303 3.53412C11.6813 3.57248 11.7374 3.58782 11.8037 3.58015C11.9058 3.56992 11.9721 3.51111 12.0027 3.40627H12.0001ZM11.5282 3.25284L11.9797 3.20425C11.967 3.14033 11.944 3.0943 11.9109 3.06617C11.8624 3.02526 11.8037 3.00736 11.7349 3.01503C11.6736 3.0227 11.6226 3.04571 11.5844 3.08918C11.5461 3.13266 11.5257 3.18636 11.5282 3.25284Z" fill="#53575A"/>
<path d="M12.8852 3.51879C12.8393 3.55459 12.7934 3.58272 12.7423 3.60317C12.6939 3.62107 12.6429 3.6313 12.5893 3.63386C12.5051 3.63386 12.4362 3.61852 12.3852 3.58016C12.3342 3.5418 12.3087 3.49066 12.3062 3.42673C12.3062 3.38326 12.3164 3.34491 12.3393 3.31166C12.3623 3.27842 12.3929 3.25285 12.4337 3.23239C12.4745 3.21194 12.5357 3.19915 12.6199 3.18892C12.7321 3.17358 12.8138 3.15824 12.8648 3.14034V3.1071C12.8648 3.05595 12.852 3.02015 12.8265 2.9997C12.7908 2.97157 12.7398 2.95623 12.6684 2.95878C12.6046 2.95878 12.5561 2.97157 12.5255 2.99203C12.4949 3.01248 12.472 3.05084 12.4566 3.10454L12.3215 3.0892C12.3393 3.00993 12.3776 2.95111 12.4362 2.91276C12.4949 2.8744 12.5791 2.8565 12.6862 2.85394C12.7704 2.85394 12.8393 2.86417 12.8877 2.88719C12.9362 2.9102 12.9668 2.93833 12.9821 2.97413C12.9949 3.00993 13.0025 3.06107 13.0051 3.13011V3.29888C13.0102 3.41651 13.0153 3.49066 13.0204 3.52135C13.028 3.55203 13.0382 3.58016 13.0561 3.61085H12.9132C12.8979 3.58783 12.8877 3.55715 12.8826 3.52135L12.8852 3.51879ZM12.8699 3.23751C12.8189 3.25796 12.7449 3.27331 12.6454 3.28865C12.5867 3.29632 12.5485 3.30655 12.5255 3.31678C12.5026 3.32701 12.4847 3.33979 12.4719 3.35769C12.4592 3.37559 12.4541 3.39605 12.4541 3.41906C12.4541 3.45486 12.4694 3.48299 12.5 3.50345C12.5306 3.5239 12.5714 3.53413 12.6225 3.53413C12.6709 3.53413 12.7168 3.5239 12.7551 3.50345C12.7959 3.48299 12.824 3.45742 12.8444 3.42418C12.8648 3.39093 12.8724 3.34491 12.8724 3.28354V3.23751H12.8699Z" fill="#53575A"/>
<path d="M13.2449 3.61597L13.2833 2.59058L13.4215 2.59569L13.3831 3.62109L13.2449 3.61597Z" fill="#53575A"/>
<path d="M13.9285 3.54183L13.9387 3.65434C13.9004 3.65946 13.8673 3.65946 13.8367 3.65946C13.7882 3.6569 13.7499 3.64667 13.7219 3.62877C13.6938 3.61343 13.676 3.59041 13.6658 3.5674C13.6556 3.54183 13.6556 3.49324 13.6607 3.41909L13.6913 2.99205L13.5918 2.98438L13.5994 2.88721L13.6989 2.89488L13.7117 2.71077L13.8545 2.64429L13.8367 2.90255L13.9744 2.91278L13.9668 3.00995L13.829 2.99972L13.7984 3.43443C13.7959 3.47534 13.7984 3.50092 13.8061 3.5137C13.8163 3.5316 13.8392 3.54183 13.8698 3.54439C13.8851 3.54439 13.9055 3.54439 13.931 3.54439L13.9285 3.54183Z" fill="#53575A"/>
<path d="M14.0662 3.66458L14.2014 2.64685L14.3365 2.66475L14.2881 3.03042C14.3238 2.99973 14.3646 2.97927 14.408 2.96905C14.4513 2.95626 14.4972 2.9537 14.5457 2.96137C14.6324 2.9716 14.6962 3.00229 14.7396 3.05087C14.7829 3.09946 14.7982 3.17617 14.7829 3.28613L14.7217 3.75408L14.5865 3.73618L14.6477 3.26823C14.6554 3.2043 14.6477 3.15571 14.6197 3.12503C14.5942 3.09434 14.5534 3.07389 14.4998 3.06621C14.4411 3.05854 14.3876 3.06877 14.3416 3.09946C14.2957 3.13014 14.2651 3.18896 14.2549 3.28101L14.2014 3.68503L14.0662 3.66713V3.66458Z" fill="#53575A"/>
<path d="M15.9282 3.93561C15.8747 3.95862 15.8211 3.97141 15.7676 3.97652C15.714 3.98164 15.663 3.97652 15.612 3.96118C15.5303 3.93817 15.4717 3.90237 15.4308 3.85123C15.3926 3.80008 15.3824 3.74383 15.3977 3.68246C15.4079 3.64154 15.4308 3.6083 15.4615 3.58273C15.4921 3.55716 15.5303 3.53926 15.5762 3.53414C15.6196 3.52647 15.6834 3.52903 15.7676 3.54437C15.8798 3.56227 15.9614 3.56994 16.015 3.56739L16.0252 3.5367C16.0379 3.48812 16.0354 3.44976 16.0175 3.42419C15.992 3.38583 15.9461 3.3577 15.8772 3.33981C15.816 3.32191 15.7675 3.31935 15.7318 3.32958C15.6961 3.33981 15.663 3.37049 15.6349 3.41908L15.5099 3.36793C15.5507 3.29633 15.6017 3.25031 15.6681 3.22985C15.7344 3.20939 15.8211 3.21451 15.9257 3.24264C16.0073 3.26565 16.0685 3.29378 16.1094 3.32958C16.1502 3.36538 16.1706 3.40118 16.1757 3.43953C16.1782 3.47789 16.1706 3.52903 16.1527 3.59552L16.1094 3.75661C16.0787 3.86913 16.0609 3.94328 16.0583 3.97397C16.0583 4.00465 16.0583 4.03789 16.0685 4.06858L15.9308 4.03022C15.9232 4.00209 15.9231 3.96885 15.9282 3.93305V3.93561ZM15.992 3.662C15.9385 3.66711 15.8619 3.662 15.7625 3.64921C15.7038 3.64154 15.663 3.63899 15.64 3.64154C15.6145 3.6441 15.5941 3.65177 15.5788 3.66711C15.5609 3.6799 15.5507 3.6978 15.5456 3.72081C15.5354 3.75406 15.5431 3.7873 15.566 3.81543C15.589 3.84355 15.6247 3.86401 15.6757 3.87935C15.7242 3.89214 15.7675 3.8947 15.8135 3.88702C15.8568 3.87935 15.8925 3.86145 15.9206 3.83588C15.9487 3.81031 15.9691 3.76684 15.9869 3.70803L15.9997 3.66456L15.992 3.662Z" fill="#53575A"/>
<path d="M16.2471 4.12992L16.5123 3.43439L16.6271 3.47786L16.5889 3.57758C16.6322 3.54946 16.6756 3.53411 16.724 3.53156C16.7725 3.529 16.821 3.53667 16.8745 3.55713C16.9154 3.57247 16.9511 3.59293 16.9791 3.6185C17.0097 3.64407 17.0301 3.66964 17.0454 3.69777C17.0582 3.7259 17.0658 3.75658 17.0633 3.79238C17.0633 3.82818 17.048 3.87677 17.025 3.94069L16.8618 4.36773L16.7317 4.31914L16.8924 3.89722C16.9128 3.84608 16.9205 3.80772 16.9179 3.7796C16.9154 3.75147 16.9052 3.7259 16.8847 3.70288C16.8643 3.67987 16.8388 3.66197 16.8057 3.65174C16.7445 3.62873 16.6883 3.62617 16.6399 3.64663C16.5914 3.66708 16.5506 3.71823 16.5174 3.80261L16.372 4.18106L16.2445 4.13248L16.2471 4.12992Z" fill="#53575A"/>
<path d="M17.5429 4.69765L17.5863 4.61327C17.548 4.63372 17.5072 4.64395 17.4638 4.64395C17.4205 4.64395 17.3796 4.63372 17.3388 4.61071C17.2547 4.56724 17.196 4.50075 17.1628 4.4087C17.1322 4.31664 17.1424 4.21436 17.1985 4.1044C17.2368 4.02769 17.2827 3.97143 17.3363 3.93308C17.3898 3.89472 17.446 3.87426 17.5072 3.87171C17.5659 3.87171 17.6245 3.88193 17.6806 3.91262C17.7214 3.93308 17.7546 3.9612 17.7801 3.99445C17.8056 4.02769 17.8235 4.06605 17.8311 4.1044L17.9969 3.77454L18.1194 3.83591L17.6577 4.75135L17.5429 4.69253V4.69765ZM17.321 4.17089C17.2776 4.25783 17.2649 4.32943 17.2827 4.39335C17.3006 4.45472 17.3363 4.4982 17.3898 4.52632C17.4409 4.55189 17.497 4.55445 17.5557 4.53399C17.6143 4.51354 17.6628 4.4624 17.7036 4.38057C17.7495 4.28851 17.7648 4.20924 17.7495 4.14787C17.7316 4.0865 17.6959 4.04047 17.6373 4.00979C17.5863 3.98422 17.5301 3.98166 17.474 4.00468C17.4154 4.02769 17.3643 4.08139 17.321 4.17089Z" fill="#53575A"/>
<path d="M18.4305 5.23459L18.8284 4.24243L18.9483 4.33704L18.6678 4.97376C18.6397 5.04025 18.6091 5.10417 18.5759 5.1681L18.7315 5.05048L19.3258 4.63623L19.4661 4.74618L19.2723 5.25504C19.2264 5.37778 19.1728 5.49285 19.1167 5.59514C19.1703 5.55167 19.2289 5.50308 19.2978 5.45194L19.8411 5.04025L19.9584 5.1323L19.0861 5.75112L18.9738 5.66418L19.2697 4.90216L19.3156 4.78454C19.2799 4.81266 19.2468 4.83824 19.2162 4.85869L18.5479 5.3292L18.428 5.23714L18.4305 5.23459Z" fill="#53575A"/>
<path d="M19.9534 6.26509L20.0401 6.3776C19.9661 6.41596 19.8947 6.42618 19.8233 6.41084C19.7519 6.3955 19.683 6.35459 19.6192 6.2881C19.5402 6.20627 19.4968 6.11678 19.4942 6.01961C19.4917 5.92244 19.5351 5.83038 19.6218 5.746C19.7136 5.6565 19.808 5.61303 19.9075 5.61814C20.007 5.62326 20.0937 5.66417 20.1702 5.74344C20.2442 5.81759 20.2799 5.90454 20.2824 6.00171C20.2824 6.09888 20.2391 6.19093 20.1498 6.27787L20.1243 6.30089L19.7009 5.86618C19.6447 5.92755 19.6192 5.99148 19.6192 6.05285C19.6192 6.11678 19.6447 6.17047 19.6907 6.2165C19.7621 6.29066 19.8488 6.306 19.9508 6.26509H19.9534ZM19.7825 5.79969L20.0988 6.12445C20.1396 6.07586 20.1626 6.02728 20.1626 5.98381C20.1626 5.91988 20.1421 5.86362 20.0937 5.81504C20.0503 5.77157 19.9993 5.746 19.9432 5.74344C19.8845 5.73832 19.8309 5.75878 19.7825 5.79969Z" fill="#53575A"/>
<path d="M20.0018 6.68194L20.7824 6.01709L20.8716 6.12193L20.0911 6.78678L20.0018 6.68194Z" fill="#53575A"/>
<path d="M20.2619 6.999L20.7721 6.60265L20.6981 6.50548L20.7746 6.44411L20.8486 6.54128L20.9098 6.49269C20.9557 6.45689 20.994 6.43644 21.0272 6.43132C21.0603 6.42621 21.0935 6.43132 21.1241 6.44922C21.1573 6.46712 21.1879 6.49525 21.2185 6.53361C21.2414 6.56429 21.2644 6.60009 21.2873 6.64356L21.1879 6.6947C21.1751 6.66913 21.1598 6.64612 21.1445 6.62566C21.119 6.59242 21.096 6.57452 21.0705 6.57196C21.0476 6.56685 21.017 6.57963 20.9812 6.60776L20.9277 6.64868L21.0246 6.77397L20.9481 6.83534L20.8512 6.71005L20.341 7.1064L20.2568 6.999H20.2619Z" fill="#53575A"/>
<path d="M20.8869 7.71504C20.8308 7.69714 20.7823 7.67156 20.7389 7.64088C20.6956 7.61019 20.6599 7.57184 20.6293 7.52837C20.5833 7.45677 20.5604 7.39028 20.5629 7.32891C20.5655 7.26498 20.5961 7.2164 20.6497 7.1806C20.6854 7.15759 20.7236 7.1448 20.7644 7.14736C20.8053 7.14992 20.8435 7.16014 20.8818 7.18571C20.92 7.20873 20.966 7.2522 21.0195 7.31868C21.0909 7.40563 21.1496 7.46444 21.193 7.50024L21.221 7.48234C21.2644 7.45421 21.2874 7.42353 21.2899 7.39284C21.295 7.34681 21.2797 7.29567 21.2389 7.23686C21.2032 7.18316 21.1675 7.14992 21.1343 7.13457C21.1012 7.11923 21.0552 7.12179 21.0017 7.13969L20.9405 7.01695C21.017 6.98882 21.0884 6.98882 21.1496 7.01695C21.2134 7.04507 21.2746 7.10644 21.3358 7.19594C21.3843 7.26754 21.4098 7.32891 21.4174 7.38261C21.4251 7.43631 21.4174 7.47722 21.3945 7.50791C21.3715 7.53859 21.3333 7.57184 21.2772 7.61019L21.1369 7.70481C21.0399 7.77129 20.9787 7.81476 20.9583 7.83522C20.9354 7.85823 20.9175 7.8838 20.9047 7.91449L20.8257 7.7943C20.8384 7.76873 20.8588 7.74316 20.8869 7.72015V7.71504ZM21.1139 7.54882C21.0705 7.51814 21.0144 7.46444 20.9481 7.38773C20.9098 7.34425 20.8792 7.31613 20.8588 7.30078C20.8384 7.288 20.818 7.28033 20.7951 7.27777C20.7746 7.27777 20.7542 7.28288 20.7338 7.29567C20.7032 7.31613 20.6879 7.34426 20.6879 7.38005C20.6879 7.41585 20.7007 7.45677 20.7287 7.49768C20.7568 7.53859 20.79 7.56928 20.8282 7.59229C20.8665 7.61531 20.9047 7.62554 20.943 7.62554C20.9813 7.62554 21.0246 7.60764 21.0756 7.57184L21.1139 7.54627V7.54882Z" fill="#53575A"/>
<path d="M20.9991 8.07555L21.6419 7.70477L21.7031 7.81217L21.6062 7.86843C21.6674 7.86843 21.7108 7.87866 21.7389 7.89144C21.7669 7.90678 21.7899 7.92724 21.8052 7.95537C21.8281 7.99628 21.8409 8.04231 21.8409 8.09857L21.7159 8.11647C21.7159 8.07811 21.7057 8.04487 21.6904 8.01674C21.6751 7.99117 21.6547 7.97071 21.6317 7.95793C21.6062 7.94514 21.5782 7.94003 21.5501 7.94514C21.4991 7.95281 21.4506 7.97071 21.4047 7.99884L21.068 8.19318L20.9991 8.073V8.07555Z" fill="#53575A"/>
<path d="M21.7261 8.93985L21.7746 9.07537C21.693 9.08816 21.6215 9.07537 21.5578 9.03957C21.494 9.00122 21.443 8.94241 21.4022 8.86058C21.3512 8.75829 21.341 8.65857 21.3665 8.56651C21.3945 8.47446 21.4634 8.4003 21.5731 8.3466C21.6879 8.29034 21.7924 8.28012 21.8843 8.31336C21.9761 8.34916 22.0475 8.41564 22.096 8.51537C22.1419 8.60998 22.1521 8.70204 22.1215 8.79665C22.0934 8.88871 22.022 8.96286 21.9098 9.01912L21.8792 9.0319L21.6139 8.48724C21.5425 8.52815 21.4966 8.5793 21.4787 8.64067C21.4608 8.69948 21.4659 8.76085 21.4966 8.81966C21.5425 8.91172 21.619 8.95519 21.7287 8.94496L21.7261 8.93985ZM21.7108 8.44377L21.9098 8.85035C21.9659 8.81711 21.9991 8.77875 22.0144 8.73784C22.0373 8.67902 22.0322 8.61765 22.0016 8.55628C21.9735 8.50003 21.9353 8.46167 21.8817 8.44121C21.8282 8.4182 21.772 8.42076 21.7108 8.44633V8.44377Z" fill="#53575A"/>
<path d="M8.21227 21.4978C8.27604 21.572 8.30665 21.6103 8.30154 21.618C8.29899 21.6257 8.29134 21.6282 8.28624 21.6257C8.27094 21.6205 8.25818 21.6205 8.24797 21.6257C8.19186 21.6666 8.13829 21.6998 8.08983 21.7228L7.78629 22.3493C7.78629 22.3493 7.77098 22.3621 7.75313 22.3544L7.69191 22.3263C7.69191 22.3263 7.6766 22.311 7.68171 22.3007L7.93168 21.7816C7.89342 21.7919 7.84751 21.8047 7.78884 21.8174C7.77864 21.8123 7.77098 21.8047 7.76333 21.7919C7.75568 21.7765 7.74548 21.7586 7.73528 21.7407C7.73018 21.7331 7.73017 21.7254 7.73272 21.7203C7.78119 21.71 7.82965 21.6973 7.88066 21.6819C7.94698 21.664 8.0082 21.6384 8.06687 21.6052C8.11789 21.5771 8.16125 21.5438 8.19951 21.5106C8.20461 21.5055 8.20716 21.5029 8.20971 21.5029L8.21227 21.4978ZM8.4954 22.3237L8.44693 22.426L8.62804 22.513C8.62804 22.513 8.63824 22.5232 8.63314 22.5334L8.61274 22.5743C8.60508 22.5871 8.59998 22.5922 8.58977 22.5897L8.40867 22.5027L8.35255 22.6204C8.35255 22.6204 8.33725 22.6332 8.32195 22.6255L8.26073 22.5948C8.26073 22.5948 8.24542 22.5795 8.25053 22.5692L8.30664 22.4516L7.91638 22.2624C7.91638 22.2624 7.90873 22.2496 7.91638 22.2368L7.93678 22.1959C7.93678 22.1959 7.94699 22.1831 7.95719 22.1857L8.05922 22.2342L8.13829 22.0706C8.13829 22.0706 8.15105 22.0604 8.1638 22.0655L8.43418 22.1959L8.4699 22.1217C8.4699 22.1217 8.4801 22.1141 8.49285 22.1217C8.56427 22.1575 8.59998 22.1805 8.59488 22.1908C8.58978 22.201 8.58212 22.2061 8.57447 22.2036C8.56682 22.201 8.55917 22.2061 8.55151 22.2215L8.53876 22.247L8.69436 22.3237C8.69436 22.3237 8.70456 22.334 8.70201 22.3442L8.6816 22.3851C8.6765 22.3979 8.66885 22.403 8.65865 22.3979L8.50305 22.3212L8.4954 22.3237ZM8.36021 21.1782C8.42398 21.2523 8.45459 21.2907 8.44948 21.2983C8.44693 21.306 8.43928 21.3086 8.43418 21.306C8.41888 21.3009 8.40612 21.3009 8.39592 21.306C8.3245 21.3495 8.25818 21.3751 8.20206 21.3878C8.17145 21.3981 8.11789 21.4083 8.04392 21.4185C8.03371 21.4134 8.02606 21.4057 8.02096 21.3955C8.01331 21.3776 8.00311 21.3597 7.99035 21.3418C7.98525 21.3341 7.98525 21.329 7.9878 21.3239C8.02606 21.3188 8.06687 21.3111 8.10513 21.3035C8.15615 21.2932 8.20461 21.2753 8.24797 21.2523C8.28879 21.2319 8.32195 21.2114 8.35001 21.1884C8.35511 21.1833 8.35766 21.1807 8.36021 21.1807V21.1782ZM8.20716 22.1831L8.1587 22.2854L8.3449 22.3749L8.39337 22.2726L8.20716 22.1831ZM8.3449 21.7331L8.80149 21.9555C8.81679 21.9632 8.8219 21.9734 8.81679 21.9836L8.71986 22.1857C8.71986 22.1857 8.70456 22.1984 8.6867 22.1908L8.23012 21.9683C8.21482 21.9606 8.20972 21.9504 8.21482 21.9402L8.31174 21.7382C8.31174 21.7382 8.32705 21.7254 8.3449 21.7331ZM8.48009 21.3751L8.63824 21.4518C8.66375 21.4211 8.6867 21.3904 8.71221 21.3546C8.71731 21.3495 8.72497 21.3495 8.73517 21.3546L8.80914 21.4134C8.80914 21.4134 8.82445 21.4313 8.81935 21.4415C8.81425 21.4543 8.80404 21.4569 8.79129 21.4492C8.78108 21.4492 8.77343 21.4492 8.76578 21.4569C8.75557 21.4722 8.74537 21.485 8.73517 21.5004L8.94689 21.6026C8.96219 21.6103 8.96729 21.6205 8.96219 21.6308L8.87801 21.8047L8.92647 21.8277C8.92647 21.8277 8.93668 21.8404 8.93158 21.8507L8.91117 21.8916C8.91117 21.8916 8.90097 21.9044 8.89077 21.8993L8.3143 21.6205C8.3143 21.6205 8.30409 21.6103 8.3092 21.6001L8.3296 21.5592C8.3296 21.5592 8.33981 21.5464 8.35001 21.5489L8.5056 21.6257C8.53111 21.5924 8.55917 21.5592 8.58723 21.5183L8.44183 21.4467C8.44183 21.4467 8.43163 21.4364 8.43673 21.4262L8.45714 21.3853C8.45714 21.3853 8.46734 21.3725 8.47755 21.3751H8.48009ZM8.64334 22.0808L8.6867 21.9888L8.38827 21.843L8.3449 21.9351L8.64334 22.0808ZM8.94433 21.9197L9.32185 22.1038C9.32185 22.1038 9.33715 22.1192 9.3295 22.132L9.30909 22.1729C9.30144 22.1857 9.29379 22.1908 9.28103 22.1857L9.1739 22.132L8.85761 22.7866C8.827 22.8479 8.75557 22.8505 8.63824 22.7942L8.58977 22.7712C8.58977 22.7712 8.58467 22.7585 8.58977 22.7431C8.59743 22.7252 8.59998 22.6996 8.59998 22.669V22.6638C8.62294 22.6817 8.6459 22.6971 8.66885 22.7099C8.71987 22.7354 8.75302 22.7329 8.76833 22.7022L9.06677 22.0834L8.89842 22.0015C8.89842 22.0015 8.88312 21.9862 8.89077 21.9734L8.91117 21.9325C8.91627 21.9197 8.92648 21.9172 8.93923 21.9223L8.94433 21.9197ZM8.60253 21.6691L8.77853 21.7535L8.83465 21.6359L8.6867 21.5643C8.65609 21.6026 8.62804 21.6384 8.60253 21.6691ZM9.13819 21.6691L9.41367 21.8021C9.41367 21.8021 9.42897 21.8174 9.42132 21.8302L9.40092 21.8711C9.39327 21.8839 9.38561 21.889 9.37286 21.8839L9.09738 21.751C9.09738 21.751 9.08207 21.7356 9.08973 21.7228L9.11013 21.6819C9.11523 21.6691 9.12544 21.6666 9.13819 21.6717V21.6691Z" fill="#53575A"/>
<path d="M10.4951 22.068L10.6074 22.1268C10.6074 22.1268 10.6227 22.1447 10.6201 22.1498C10.6201 22.1626 10.6099 22.1677 10.5972 22.1677C10.5844 22.1652 10.5742 22.1677 10.5691 22.1831C10.5359 22.2393 10.5104 22.2853 10.4849 22.3211L10.8803 22.4055L10.9339 22.1549C10.9339 22.1549 10.9466 22.1396 10.9645 22.1447C11.0461 22.1626 11.0869 22.1754 11.0844 22.1882C11.0818 22.201 11.0742 22.2086 11.064 22.2061C11.0537 22.2061 11.0461 22.2137 11.041 22.2291L10.9976 22.4311L11.546 22.5462C11.5588 22.5487 11.5639 22.5564 11.5614 22.5666L11.5486 22.6229C11.546 22.6382 11.5384 22.6433 11.5231 22.6408L10.9747 22.5257L10.9084 22.8428L11.3777 22.9425C11.3905 22.9451 11.3956 22.9527 11.393 22.9681L11.3828 23.0141C11.3802 23.0269 11.3726 23.0346 11.3598 23.032L10.8905 22.9323L10.8114 23.3082L11.4389 23.4412C11.4517 23.4437 11.4568 23.4514 11.4542 23.4642L11.4415 23.5204C11.4389 23.5332 11.4313 23.5409 11.4185 23.5383L9.96968 23.234C9.95692 23.2315 9.95182 23.2238 9.95437 23.2085L9.96713 23.1522C9.96713 23.1522 9.97733 23.1343 9.99009 23.1394L10.6941 23.2877L10.7732 22.9118L10.263 22.8044C10.2503 22.8019 10.2452 22.7942 10.2477 22.7789L10.2579 22.7328C10.2605 22.7201 10.2681 22.7124 10.2809 22.7149L10.791 22.8223L10.8573 22.5053L10.4186 22.4132C10.3855 22.4541 10.3523 22.4925 10.3191 22.5283C10.2809 22.5641 10.2401 22.5973 10.1993 22.6229C10.1839 22.6203 10.1737 22.6152 10.1635 22.6101C10.1431 22.5973 10.1202 22.5845 10.0998 22.5743C10.0921 22.5692 10.0896 22.5641 10.0896 22.5615C10.0896 22.5538 10.0947 22.5513 10.0998 22.5487C10.1661 22.5104 10.2248 22.4567 10.2834 22.3902C10.3166 22.3518 10.3497 22.3109 10.3778 22.2649C10.4084 22.2189 10.4416 22.1575 10.4773 22.0833C10.4824 22.0757 10.4875 22.0731 10.4926 22.0731L10.4951 22.068Z" fill="#53575A"/>
<path d="M12.5103 22.7098L13.097 22.6996C13.1097 22.6996 13.1174 22.7073 13.1174 22.7226V22.7686C13.1174 22.784 13.1123 22.7916 13.0995 22.7916H12.8801L12.8929 23.6534C12.8929 23.6662 12.8852 23.6713 12.8674 23.6713H12.8011C12.7832 23.6713 12.773 23.6662 12.773 23.6534L12.7603 22.7942L12.5128 22.7993C12.5001 22.7993 12.4924 22.7916 12.4924 22.7763V22.7303C12.4924 22.7149 12.4975 22.7073 12.5103 22.7073V22.7098ZM12.5741 22.9093L12.6965 22.9323C12.6965 22.9323 12.7143 22.9425 12.7143 22.9502C12.7143 22.9604 12.7092 22.9681 12.699 22.9681C12.6812 22.9732 12.671 22.9911 12.6684 23.0167C12.671 23.1906 12.6684 23.3107 12.6582 23.3772C12.648 23.4412 12.6353 23.4974 12.6225 23.546C12.6225 23.5537 12.6149 23.5588 12.6021 23.5588C12.5358 23.5409 12.5026 23.5307 12.5026 23.5255C12.5281 23.4488 12.5409 23.3849 12.5485 23.3363C12.5562 23.2443 12.5613 23.1062 12.5613 22.9246C12.5613 22.9144 12.5664 22.9093 12.5741 22.9093ZM12.5868 22.426L13.0204 22.4183C13.0332 22.4183 13.0408 22.426 13.0408 22.4413V22.4874C13.0408 22.5027 13.0357 22.5104 13.023 22.5104L12.5894 22.518C12.5766 22.518 12.569 22.5104 12.569 22.495V22.449C12.569 22.4337 12.5741 22.426 12.5868 22.426ZM13.0026 22.9067H13.0638C13.0817 22.9067 13.0893 22.9144 13.0919 22.9297C13.0791 22.9834 13.074 23.0371 13.074 23.0883C13.074 23.2289 13.0995 23.3568 13.1403 23.4744C13.1403 23.4821 13.1352 23.4872 13.125 23.4897C13.0664 23.4949 13.0357 23.4974 13.0281 23.4974L13.0179 23.477C12.9949 23.3031 12.9822 23.1215 12.9796 22.9323C12.9796 22.9169 12.9873 22.9067 13.0051 22.9067H13.0026ZM13.1939 22.3979L13.9999 22.3851C14.0127 22.3851 14.0203 22.3927 14.0203 22.4081V22.4541C14.0203 22.4695 14.0152 22.4771 14.0025 22.4771L13.1964 22.4899C13.1837 22.4899 13.176 22.4822 13.176 22.4669V22.4209C13.176 22.4055 13.1811 22.3979 13.1939 22.3979ZM13.2041 23.0269L13.9974 23.0141C14.0152 23.0141 14.0254 23.0192 14.0254 23.0295L14.0356 23.6329C14.0356 23.6329 14.028 23.6508 14.0101 23.6508H13.9438C13.926 23.6508 13.9183 23.6457 13.9157 23.6329V23.5767L13.3087 23.5869V23.6432C13.3087 23.6432 13.301 23.6611 13.2832 23.6611H13.2168C13.199 23.6611 13.1913 23.6559 13.1888 23.6432L13.1786 23.0474C13.1786 23.032 13.1862 23.0218 13.2041 23.0218V23.0269ZM13.2628 22.5845L13.9285 22.5743C13.9464 22.5743 13.9566 22.5794 13.9566 22.5896L13.9617 22.9016C13.9617 22.9016 13.954 22.9195 13.9362 22.9195L13.2704 22.9297C13.2526 22.9297 13.2449 22.9246 13.2424 22.9118L13.2372 22.5999C13.2372 22.5999 13.2449 22.582 13.2628 22.582V22.5845ZM13.301 23.2596L13.5484 23.2545V23.1138L13.2985 23.119V23.2596H13.301ZM13.3061 23.5L13.5535 23.4949V23.3465L13.3036 23.3517V23.5H13.3061ZM13.8418 22.83V22.6664L13.3597 22.674V22.8377L13.8418 22.83ZM13.6658 23.1113V23.2519L13.9081 23.2468V23.1062L13.6658 23.1113ZM13.6709 23.4923L13.9107 23.4872V23.3389L13.6683 23.344V23.4923H13.6709Z" fill="#53575A"/>
<path d="M15.5354 22.1371C15.5354 22.1371 15.5201 22.1422 15.5099 22.1473C15.4691 22.1754 15.4181 22.2035 15.3594 22.2342C15.3492 22.2419 15.3365 22.247 15.3263 22.2521L15.3926 22.4976L15.7012 22.4132C15.714 22.4107 15.7216 22.4132 15.7267 22.4311L15.7395 22.4746C15.7446 22.4899 15.7395 22.4976 15.7267 22.5027L15.4359 22.582C15.4844 22.6331 15.5278 22.6715 15.566 22.6996C15.6145 22.738 15.691 22.7763 15.7956 22.8172C15.8058 22.8172 15.8134 22.8224 15.8134 22.8275C15.8134 22.83 15.8134 22.8351 15.8058 22.8428C15.7981 22.8582 15.7854 22.8786 15.7701 22.8991C15.765 22.9093 15.7599 22.9144 15.7548 22.9144C15.7471 22.9144 15.7369 22.9144 15.7242 22.9144C15.6527 22.8837 15.5864 22.8428 15.5252 22.7942C15.5023 22.7763 15.4819 22.7584 15.4589 22.738L15.6272 23.3619C15.6272 23.3619 15.6221 23.3798 15.6043 23.3849L15.5405 23.4028C15.5227 23.4079 15.5125 23.4028 15.5099 23.3952L15.3543 22.8121C15.3543 22.8121 15.3467 22.8351 15.3441 22.8454C15.3212 22.9093 15.2931 22.9732 15.2625 23.0346C15.2268 23.0985 15.1885 23.1548 15.1477 23.2034C15.1349 23.2059 15.1247 23.2059 15.1171 23.2034C15.0916 23.1906 15.0661 23.1804 15.0406 23.1727C15.0355 23.1676 15.0329 23.1625 15.0329 23.1599C15.0712 23.1164 15.1043 23.0781 15.1273 23.0397C15.1605 22.9911 15.1936 22.9272 15.2242 22.8505C15.2421 22.8045 15.265 22.7277 15.2905 22.6229L14.9411 22.7175C14.9283 22.7201 14.9207 22.7175 14.9156 22.6996L14.9028 22.6561C14.8977 22.6408 14.9028 22.6331 14.9156 22.628L15.2752 22.5309L15.214 22.3033C15.1962 22.3109 15.1783 22.3186 15.1605 22.3263C15.0865 22.3544 15.0176 22.3774 14.9564 22.3928C14.9385 22.3979 14.9258 22.3928 14.9156 22.3825C14.8977 22.3698 14.8748 22.3544 14.8518 22.3391C14.8493 22.3288 14.8518 22.3212 14.8671 22.3186L14.964 22.293C15.0406 22.2726 15.1069 22.2496 15.163 22.2266C15.214 22.2087 15.2625 22.1882 15.3109 22.1601C15.3671 22.1319 15.4104 22.1013 15.4461 22.0655C15.4512 22.0603 15.4538 22.0578 15.4563 22.0578C15.4691 22.0552 15.4793 22.0552 15.4844 22.0578C15.5609 22.0885 15.5992 22.1089 15.6017 22.1192C15.6043 22.1294 15.6017 22.1371 15.5864 22.1396H15.538L15.5354 22.1371ZM15.793 22.1473C15.8747 22.1243 15.918 22.1192 15.9206 22.1319C15.9231 22.1447 15.9206 22.1524 15.9104 22.1575C15.9002 22.1626 15.8976 22.1729 15.9027 22.1882L16.0915 22.8965C16.0915 22.8965 16.0864 22.9144 16.0711 22.9195L16.0073 22.9374C15.9895 22.9425 15.9792 22.9374 15.9767 22.9272L15.7726 22.1703C15.7726 22.1703 15.7777 22.1524 15.793 22.1473ZM16.0864 21.9044L16.2292 21.8813C16.2445 21.8813 16.2547 21.8839 16.2547 21.8865C16.2573 21.8967 16.2496 21.9044 16.2343 21.9069C16.2139 21.9223 16.2088 21.9478 16.219 21.9887L16.4945 23.0141C16.5149 23.0883 16.4639 23.142 16.344 23.1727L16.2292 23.2034C16.2292 23.2034 16.2139 23.1983 16.2088 23.1804C16.1986 23.1625 16.1833 23.1446 16.1578 23.1215C16.1552 23.1113 16.1578 23.1036 16.1655 23.1011C16.219 23.0985 16.2649 23.0909 16.3057 23.0806C16.3542 23.0678 16.3721 23.0448 16.3644 23.0116L16.0966 22.0118C16.0889 21.9811 16.0813 21.9581 16.0762 21.9453C16.0711 21.935 16.066 21.9248 16.066 21.9171C16.066 21.9095 16.0711 21.9018 16.0889 21.8967L16.0864 21.9044Z" fill="#53575A"/>
<path d="M17.3057 21.3367C17.3797 21.2932 17.418 21.2779 17.4231 21.2881C17.4307 21.2983 17.4282 21.3086 17.418 21.3162C17.4103 21.3239 17.4103 21.3341 17.418 21.3495L17.4741 21.4492L17.7572 21.2856C17.7572 21.2856 17.7776 21.283 17.7853 21.2958L17.8082 21.3341C17.8159 21.3469 17.8133 21.3572 17.8031 21.3648L17.1144 21.7612C17.1144 21.7612 17.094 21.7637 17.0864 21.7509L17.0634 21.71C17.0558 21.6972 17.0583 21.687 17.0685 21.6819L17.3695 21.508L17.2879 21.3648C17.2879 21.3648 17.2879 21.3444 17.3032 21.3367H17.3057ZM17.2879 21.6947C17.3363 21.7228 17.3797 21.7509 17.4154 21.7791C17.4511 21.8021 17.4817 21.8277 17.5149 21.8609C17.5149 21.8635 17.4894 21.8916 17.4307 21.9427C17.4129 21.9223 17.3874 21.8967 17.3568 21.8711C17.321 21.8404 17.2802 21.8123 17.2343 21.7867C17.2292 21.7791 17.2471 21.7484 17.2879 21.6947ZM17.2522 22.0578L18.0046 21.6231C18.0046 21.6231 18.025 21.6205 18.0301 21.6333L18.0531 21.6717C18.0608 21.6845 18.0582 21.6947 18.048 21.6998L17.2955 22.1345C17.2955 22.1345 17.2751 22.1371 17.2675 22.1243L17.2445 22.0859C17.2445 22.0859 17.2394 22.0629 17.2522 22.0578ZM17.4435 22.1805L17.9995 21.8583C18.0148 21.8481 18.025 21.8507 18.0301 21.8583L18.275 22.2828C18.275 22.2828 18.275 22.3033 18.2623 22.3135L18.2036 22.3467C18.1883 22.3544 18.1781 22.3544 18.173 22.3442L18.1398 22.2854L17.7445 22.513L17.7776 22.5718C17.7776 22.5718 17.7776 22.5922 17.7649 22.5999L17.7062 22.6331C17.6909 22.6408 17.6807 22.6408 17.673 22.6306L17.4307 22.2112C17.4231 22.1984 17.4282 22.1882 17.4435 22.178V22.1805ZM17.6986 22.4337L18.0939 22.2061L17.9664 21.9862L17.571 22.2138L17.6986 22.4337ZM17.6654 21.4645L17.77 21.4441C17.7878 21.4415 17.798 21.4441 17.8031 21.4518C17.8057 21.4569 17.8031 21.4645 17.798 21.4722C17.7878 21.4773 17.7853 21.4876 17.7878 21.4978C17.8006 21.5847 17.8031 21.6563 17.7955 21.7126C17.7955 21.7254 17.7955 21.733 17.7904 21.7356C17.7827 21.7407 17.7725 21.7407 17.7598 21.7407C17.7343 21.7433 17.7113 21.7484 17.6909 21.7535C17.6807 21.7535 17.6756 21.7535 17.6756 21.7535C17.6756 21.7535 17.6756 21.7484 17.6756 21.7433C17.6807 21.6921 17.6832 21.6512 17.6807 21.6154C17.6807 21.5694 17.673 21.5285 17.6628 21.4876C17.6603 21.4773 17.6628 21.4697 17.6654 21.4671V21.4645ZM17.9638 21.127L18.5403 22.132C18.5403 22.132 18.5403 22.1524 18.525 22.1626L18.4663 22.1959C18.451 22.2061 18.4408 22.2036 18.4332 22.1959L17.821 21.1321C17.821 21.1321 17.821 21.1142 17.8363 21.104L18.2419 20.8713C18.2597 20.8611 18.2725 20.856 18.2827 20.856C18.3158 20.856 18.3362 20.8611 18.3388 20.8662V21.3392C18.3388 21.3392 18.3388 21.3571 18.3388 21.3623C18.3413 21.3674 18.349 21.3725 18.3592 21.3751C18.4332 21.3904 18.5046 21.4185 18.5735 21.462C18.6449 21.5055 18.6984 21.5617 18.7342 21.6256C18.7597 21.6691 18.7699 21.7126 18.7699 21.7586C18.7699 21.8046 18.752 21.8481 18.7189 21.8839C18.701 21.9146 18.6602 21.9478 18.599 21.9836C18.5735 21.999 18.5582 21.999 18.5479 21.9836C18.525 21.9555 18.502 21.9402 18.4842 21.9299C18.4791 21.9197 18.4816 21.912 18.4918 21.9044L18.5658 21.8737C18.6117 21.8481 18.6372 21.8174 18.6449 21.7816C18.6525 21.7509 18.6449 21.7203 18.6296 21.687C18.6041 21.641 18.5607 21.5975 18.4995 21.5566C18.4306 21.5131 18.3439 21.4799 18.2444 21.4569C18.2317 21.4569 18.2266 21.4543 18.2215 21.4492C18.2215 21.4441 18.2164 21.4364 18.2164 21.4262L18.2317 20.971L17.9562 21.1296L17.9638 21.127Z" fill="#53575A"/>
<path d="M21.8307 12.9724C21.8307 17.8974 17.849 21.889 12.9362 21.889C8.02348 21.889 4.04175 17.8974 4.04175 12.9724C4.04175 8.04742 8.02348 4.05579 12.9362 4.05579C17.849 4.05579 21.8307 8.04742 21.8307 12.9724Z" fill="#54C0E8"/>
<path d="M16.974 7.7585C16.5634 7.74827 16.1527 7.73037 15.7497 7.74571C15.6323 7.77384 15.515 7.79174 15.4079 7.82754C14.8697 7.99631 14.6324 8.21111 14.4437 8.74298C14.2728 9.68655 14.6222 10.8168 14.8697 11.7578C15.0406 12.0953 15.1451 12.3383 15.566 12.4406C15.6782 12.4303 15.7454 12.4209 15.7675 12.4124C15.9894 12.1542 16.0022 11.8422 15.9384 11.5379C15.867 11.3103 15.8058 11.0878 15.742 10.8628C15.5226 10.3028 15.2319 9.71212 15.1043 9.14956C15.1043 8.88874 15.1094 8.93988 15.288 8.76088C15.7446 8.56143 16.3593 8.65093 16.8924 8.5512C17.0506 8.48216 17.2597 8.38499 17.349 8.22389C17.4612 7.91192 17.1832 7.81476 16.9715 7.7585H16.974Z" fill="#002E6D"/>
<path d="M11.1966 8.57678C11.138 8.50262 11.0819 8.41824 11.0257 8.34408C10.8013 8.12161 10.5437 8.00654 10.2988 7.89403C10.2155 7.87357 10.1619 7.85738 10.1381 7.84545C9.49784 7.68691 8.83719 7.63832 8.20716 7.67412C8.12043 7.87613 8.25818 8.17787 8.37806 8.35942C8.66375 8.60746 8.96729 8.61002 9.36266 8.65349C9.81414 8.67139 10.3983 8.58701 10.5947 9.13678C10.6253 9.77606 10.3472 10.3846 10.1483 10.9932C10.0233 11.4995 9.79373 12.0877 10.4569 12.3153C10.6737 12.2974 10.7146 12.3076 10.8829 12.1593C11.0921 11.7629 11.1431 11.3308 11.2222 10.891C11.2885 10.3949 11.314 9.91414 11.3318 9.43596C11.3284 9.2689 11.3208 9.10098 11.3089 8.93221C11.2681 8.81459 11.2298 8.69696 11.1941 8.57166L11.1966 8.57678Z" fill="#002E6D"/>
<path d="M17.395 6.45177C17.1399 6.24465 16.8211 6.19095 16.5354 6.15515C16.1069 6.17049 15.6401 6.21908 15.5814 6.71771C15.6018 6.98621 15.5865 6.99388 15.8493 7.14986C16.0253 7.18055 16.2115 7.21123 16.4206 7.23169C16.7803 7.20101 17.1425 7.22913 17.4384 6.95552C17.5685 6.76118 17.5072 6.60009 17.3976 6.45177H17.395Z" fill="#002E6D"/>
<path d="M8.52857 7.01435C8.80405 7.07827 9.04637 7.1064 9.36521 7.10896C9.59733 7.09617 9.82435 7.10129 10.0412 6.93763C10.2835 6.57197 9.89578 6.3674 9.6254 6.25489C9.08719 6.14493 8.24033 5.93269 8.11279 6.67425C8.15361 6.91718 8.2888 6.92229 8.53112 7.01179L8.52857 7.01435Z" fill="#002E6D"/>
<path d="M13.1097 5.89435V5.7895C13.1148 5.49799 13.1114 4.98572 13.0995 4.25269C13.0791 4.14273 12.9005 4.18109 12.8444 4.21433L12.8215 4.2578C12.8402 5.04198 12.8487 5.5713 12.847 5.84576C12.4338 5.82786 11.7119 5.73836 11.4568 6.14494C11.3752 6.39042 11.4084 6.35718 11.1686 6.45179V6.48504C11.2272 6.50038 11.3267 6.50038 11.4186 6.50549L11.24 6.61801L11.2323 6.64358C11.2961 6.65892 11.393 6.63335 11.4798 6.66403C11.8598 6.88394 12.2118 6.72796 12.648 6.62823L12.8546 6.63335C12.8597 6.96833 12.8597 7.29052 12.8674 7.61783L12.7551 7.70477C12.4159 7.82751 12.1455 7.93235 11.893 8.19062C11.6966 8.55629 11.7782 8.84013 12.0715 9.13675L12.0945 9.14442V9.16232C12.245 9.24415 12.398 9.33365 12.5894 9.372C12.6888 9.38735 12.7909 9.39502 12.8929 9.40013C12.9031 9.60214 12.8878 9.79904 12.9082 10.0317C12.2067 10.1775 11.6864 10.4051 11.9364 11.2336C11.9797 11.318 12.0256 11.4075 12.0715 11.4944C12.2348 11.6887 12.4133 11.7961 12.6506 11.9214C12.7628 11.9291 12.8521 12.0186 12.9363 12.0339C12.9439 12.2615 12.9541 12.4559 12.9516 12.6016C12.9949 12.6067 13.0383 12.6093 13.0816 12.6067C13.125 12.6067 13.1684 12.6016 13.2092 12.5965C13.2041 12.5377 13.2066 12.0212 13.2347 11.9675C13.4821 11.8703 13.727 11.8217 13.9719 11.6734C14.1377 11.4995 14.1938 11.3435 14.2167 11.1185L14.1479 11.1441C14.0509 11.2796 13.9668 11.387 13.8316 11.4918C13.7117 11.5328 13.3163 11.7015 13.2168 11.612C13.2066 11.2259 13.1633 10.8168 13.1786 10.4511C13.5357 10.3769 13.8137 10.3335 14.0407 10.001C14.2524 9.54333 14.056 9.26205 13.6683 9.06515C13.5 9.02679 13.273 8.98332 13.1072 8.94497C13.0893 8.64323 13.0842 8.36962 13.074 8.08322C13.1658 8.03975 13.3877 7.97838 13.6275 7.88888C14.0025 7.70733 14.2142 7.54367 14.3188 7.12175C14.3239 6.98623 14.3264 6.8686 14.3086 6.7612C14.1479 6.26001 13.5357 6.00686 13.102 5.89435H13.1097ZM12.1149 6.28302L11.9746 6.3444C11.9134 6.27024 11.9032 6.27024 11.8267 6.27024L11.7833 6.40577C11.7374 6.4177 11.6881 6.42707 11.6354 6.43389C11.5155 6.37764 11.5486 6.34184 11.5997 6.27535C11.7833 6.17051 11.8955 6.16028 12.1149 6.22421V6.28302ZM12.8623 8.93218L12.7551 8.91172C12.6506 8.88871 12.5383 8.85547 12.4618 8.83245C12.4006 8.78813 12.3623 8.76682 12.347 8.76853V8.75063L12.3292 8.74296C12.1557 8.41053 12.421 8.30569 12.6761 8.19062L12.8597 8.14459C12.8725 8.31336 12.8674 8.37729 12.8597 8.93474L12.8623 8.93218ZM12.9184 11.6146L12.8215 11.5992C12.4491 11.4944 12.1124 11.1722 12.245 10.7835C12.3802 10.5713 12.6455 10.4997 12.8929 10.4716C12.9107 11.1057 12.9337 11.1543 12.9209 11.6146H12.9184ZM13.5433 9.5868C13.5994 9.6942 13.5969 9.81182 13.4974 9.90644C13.3699 9.97548 13.2832 9.99338 13.1684 10.0215L13.1403 10.0087C13.1276 9.80671 13.1403 9.59191 13.1403 9.40269C13.2908 9.4078 13.4286 9.43849 13.5459 9.5868H13.5433ZM13.5204 7.24194L13.528 7.25984C13.3673 7.38002 13.2474 7.43883 13.0842 7.50788C13.0714 7.21381 13.0663 6.93253 13.0765 6.64869C13.2781 6.6359 13.5739 6.77399 13.6275 6.94787C13.6326 7.03993 13.6224 7.18312 13.5178 7.2445L13.5204 7.24194Z" fill="#002E6D"/>
<path d="M13.6045 16.9999C13.6045 16.7032 13.3648 16.4629 13.0689 16.4629C12.773 16.4629 12.5332 16.7032 12.5332 16.9999C12.5332 17.2965 12.773 17.5369 13.0689 17.5369C13.3648 17.5369 13.6045 17.2965 13.6045 16.9999ZM15.6604 15.6702C15.6808 15.6523 15.6834 15.619 15.6655 15.5986C15.6477 15.5781 15.6171 15.5704 15.5941 15.5858C15.5814 15.5935 15.4181 15.7009 15.1835 15.9054C14.9233 15.2534 14.6121 14.7036 14.306 14.2586C13.9361 13.7191 13.551 13.2818 13.2092 12.9494C13.4234 12.7014 13.653 12.4559 13.9004 12.2155C13.9208 12.1976 13.9234 12.1644 13.9055 12.1439C13.8877 12.1235 13.8571 12.1184 13.8341 12.1311C13.829 12.1363 13.4923 12.3511 13.0306 12.7781C12.5689 12.3485 12.2348 12.1337 12.2271 12.1311C12.2042 12.1158 12.1736 12.1209 12.1557 12.1439C12.1379 12.1644 12.1404 12.1976 12.1608 12.2155C12.4082 12.4559 12.6378 12.7014 12.8521 12.9494C12.5128 13.2844 12.1251 13.7191 11.7578 14.2586C11.4619 14.6934 11.1558 15.2278 10.9007 15.8594C10.6967 15.683 10.5564 15.5935 10.5436 15.5858C10.5207 15.5704 10.4901 15.5756 10.4722 15.5986C10.4544 15.619 10.4569 15.6523 10.4773 15.6702C10.6023 15.7903 10.7196 15.9156 10.8293 16.0384C10.3574 17.2811 10.0819 18.8793 10.3906 20.8253C10.3957 20.8534 10.4212 20.8739 10.4493 20.8688C10.4773 20.8662 10.4977 20.8406 10.4952 20.8125C10.4926 20.7818 10.3498 18.8256 11.1839 16.4731C12.7755 18.6006 12.6021 21.0068 12.5995 21.0324C12.5995 21.0605 12.6174 21.0861 12.6455 21.0912C12.6735 21.0963 12.699 21.0759 12.7041 21.0452C13.0102 19.1248 12.4057 17.7414 11.8445 16.9206C11.6532 16.6419 11.4568 16.4066 11.2757 16.2174C11.6532 15.2201 12.2118 14.164 13.0281 13.1591C13.8596 14.1819 14.4233 15.2585 14.8008 16.2711C14.6325 16.4501 14.4565 16.6674 14.283 16.9206C13.7219 17.7414 13.1199 19.1248 13.426 21.0452C13.4311 21.0733 13.4566 21.0938 13.4846 21.0912C13.5127 21.0887 13.5331 21.0631 13.5306 21.0324C13.5306 21.0043 13.3571 18.6466 14.8978 16.537C15.7064 18.8614 15.5661 20.7818 15.5635 20.8125C15.5635 20.8406 15.5814 20.8662 15.6094 20.8688C15.6375 20.8713 15.663 20.8534 15.6681 20.8253C15.9742 18.9075 15.7089 17.3272 15.2498 16.0946C15.3748 15.9514 15.5099 15.8082 15.6528 15.6702H15.6604ZM10.6227 14.3609C10.6227 13.8981 10.2477 13.5222 9.78605 13.5222C9.32437 13.5222 8.94941 13.8981 8.94941 14.3609C8.94941 14.8238 9.32437 15.1997 9.78605 15.1997C10.2477 15.1997 10.6227 14.8238 10.6227 14.3609ZM5.73546 12.1286C5.71251 12.1132 5.6819 12.1184 5.66404 12.1414C5.64619 12.1618 5.64873 12.1951 5.66914 12.213C9.43405 15.8543 9.07695 20.7639 9.07185 20.8125C9.07185 20.8406 9.0897 20.8662 9.11776 20.8688C9.14582 20.8713 9.17133 20.8534 9.17643 20.8253C9.66362 17.7644 8.70198 15.5653 7.80922 14.2561C6.84248 12.8395 5.74311 12.1363 5.73291 12.1286H5.73546ZM17.1195 14.3609C17.1195 14.1359 17.0328 13.9262 16.8746 13.7677C16.7165 13.6091 16.5073 13.5222 16.2828 13.5222C15.8211 13.5222 15.4462 13.8981 15.4462 14.3609C15.4462 14.8238 15.8211 15.1997 16.2828 15.1997C16.7445 15.1997 17.1195 14.8238 17.1195 14.3609ZM20.4048 12.1414C20.387 12.1209 20.3564 12.1158 20.3334 12.1286C20.3232 12.1363 19.2239 12.8395 18.2571 14.2561C17.3644 15.5628 16.4027 17.7644 16.8899 20.8253C16.895 20.8534 16.9205 20.8739 16.9486 20.8688C16.9766 20.8662 16.997 20.8406 16.9945 20.8125C16.9894 20.7639 16.6323 15.8517 20.3972 12.213C20.4176 12.1951 20.4202 12.1618 20.4023 12.1414H20.4048Z" fill="#FFC629"/>
<path d="M25.4936 21.7637V17.6417H26.3889L27.4552 20.5593L27.6694 21.1705C27.723 21.0196 27.8021 20.7971 27.9092 20.5107L28.9856 17.6442H29.7865V21.7663H29.2126V18.3065L27.9015 21.7663H27.3659L26.0624 18.2426V21.7663H25.4885L25.4936 21.7637Z" fill="#656464"/>
<path d="M30.7405 18.2221V17.6417H31.2914V18.2221H30.7405ZM30.7405 21.7637V18.7745H31.2914V21.7637H30.7405Z" fill="#656464"/>
<path d="M32.2123 21.7637V18.7745H32.7122V19.1964C32.8321 19.0328 32.9775 18.91 33.151 18.8282C33.3244 18.7464 33.5208 18.7054 33.7453 18.7054C33.9187 18.7054 34.0794 18.731 34.2274 18.7822C34.3753 18.8333 34.4952 18.9023 34.5845 18.9842C34.6763 19.0686 34.7426 19.176 34.7885 19.3089C34.8345 19.4419 34.8549 19.6465 34.8549 19.9226V21.7612H34.3039V19.9405C34.3039 19.7206 34.2784 19.5595 34.2299 19.4572C34.1789 19.3549 34.1024 19.2782 33.9953 19.222C33.8907 19.1657 33.7682 19.1376 33.628 19.1376C33.3627 19.1376 33.1535 19.2117 32.9979 19.3601C32.8423 19.5084 32.7632 19.7641 32.7632 20.1246V21.7586H32.2123V21.7637Z" fill="#656464"/>
<path d="M35.7808 18.2221V17.6417H36.3317V18.2221H35.7808ZM35.7808 21.7637V18.7745H36.3317V21.7637H35.7808Z" fill="#656464"/>
<path d="M37.0409 20.8739L37.5918 20.7997C37.625 21.0094 37.7117 21.1654 37.8571 21.2677C38.0025 21.3699 38.1938 21.4211 38.431 21.4211C38.6683 21.4211 38.8545 21.3751 38.9846 21.2856C39.1147 21.1961 39.181 21.081 39.181 20.9429C39.181 20.8227 39.1249 20.7307 39.0126 20.6642C38.9361 20.6182 38.7473 20.5619 38.4515 20.4954C38.0229 20.3957 37.7347 20.3113 37.5918 20.2423C37.4465 20.1732 37.3342 20.0786 37.2551 19.9635C37.1761 19.8485 37.1353 19.7155 37.1353 19.5672C37.1353 19.3115 37.2449 19.1044 37.4618 18.9458C37.6786 18.7873 37.9796 18.7054 38.3647 18.7054C38.6071 18.7054 38.8188 18.7387 39.0024 18.8052C39.1861 18.8717 39.3264 18.9586 39.4233 19.0711C39.5202 19.1811 39.5891 19.3396 39.6248 19.5467L39.0866 19.6209C39.0356 19.2885 38.8009 19.1197 38.38 19.1197C38.1403 19.1197 37.9617 19.1555 37.8469 19.2271C37.7296 19.2987 37.6709 19.3907 37.6709 19.5033C37.6709 19.6158 37.727 19.7002 37.8393 19.7641C37.9056 19.8024 38.1071 19.8613 38.4387 19.9431C38.8953 20.053 39.1912 20.14 39.3264 20.2039C39.4615 20.2678 39.5661 20.3573 39.6401 20.4698C39.7141 20.5824 39.7523 20.7153 39.7523 20.8688C39.7523 21.1551 39.6325 21.3878 39.3901 21.5643C39.1504 21.7407 38.8213 21.8302 38.403 21.8302C37.6225 21.8302 37.1684 21.5106 37.0434 20.8713L37.0409 20.8739Z" fill="#656464"/>
<path d="M41.6985 21.3086L41.7725 21.7561C41.6195 21.7868 41.4843 21.8021 41.3618 21.8021C41.1705 21.8021 41.0149 21.774 40.8976 21.7152C40.7803 21.6589 40.7012 21.5796 40.6553 21.4799C40.6119 21.3802 40.5889 21.1833 40.5889 20.8867V19.1683H40.1885V18.7719H40.5889V18.0355L41.1399 17.7312V18.7719H41.696V19.1683H41.1399V20.9148C41.1399 21.0759 41.1552 21.1807 41.1884 21.2268C41.2368 21.2932 41.3236 21.329 41.4537 21.329C41.5149 21.329 41.5965 21.3214 41.696 21.306L41.6985 21.3086Z" fill="#656464"/>
<path d="M42.2954 21.7637V18.7745H42.7954V19.2245C42.9229 19.0149 43.0402 18.8742 43.1448 18.8077C43.2519 18.7387 43.3693 18.7054 43.5019 18.7054C43.6856 18.7054 43.8743 18.7591 44.0682 18.8665L43.8794 19.337C43.7417 19.2654 43.6091 19.2271 43.479 19.2271C43.3616 19.2271 43.2545 19.2578 43.1576 19.3191C43.0606 19.3805 42.9918 19.4675 42.951 19.5774C42.8821 19.7718 42.8464 19.9763 42.8464 20.1937V21.7586H42.2954V21.7637Z" fill="#656464"/>
<path d="M44.4432 22.9144L44.3871 22.4362C44.5095 22.4669 44.6141 22.4823 44.7008 22.4823C44.8181 22.4823 44.9151 22.4644 44.989 22.4286C45.0656 22.3928 45.1268 22.3365 45.1778 22.2624C45.1956 22.2368 45.2671 22.068 45.3946 21.7612L44.1626 18.7745H44.7569L45.4354 20.4954C45.5196 20.7102 45.5987 20.9403 45.6701 21.1833C45.7313 20.9531 45.8078 20.7255 45.8946 20.5056L46.5884 18.7745H47.1419L45.9073 21.8149C45.7441 22.2087 45.6165 22.472 45.5247 22.605C45.4329 22.738 45.3257 22.8326 45.2058 22.8914C45.0885 22.9502 44.9533 22.9783 44.8028 22.9783C44.6983 22.9783 44.5784 22.9579 44.4483 22.9144H44.4432Z" fill="#656464"/>
<path d="M49.2972 20.2703C49.2972 19.7538 49.4401 19.3651 49.7283 19.1017C50.0165 18.8384 50.3813 18.7079 50.8226 18.7079C51.2639 18.7079 51.6184 18.8384 51.9092 19.1017C52.2 19.3651 52.3454 19.7436 52.3454 20.2396C52.3454 20.7766 52.2025 21.1755 51.9143 21.4389C51.6286 21.7023 51.2639 21.8327 50.82 21.8327C50.3762 21.8327 50.0216 21.6998 49.7309 21.4364C49.4401 21.173 49.2947 20.7843 49.2947 20.2678L49.2972 20.2703ZM49.866 20.2703C49.866 20.659 49.9604 20.948 50.1466 21.1372C50.3328 21.3264 50.565 21.421 50.8404 21.421C51.0981 21.421 51.32 21.3264 51.5062 21.1346C51.6924 20.9429 51.7842 20.6565 51.7842 20.2703C51.7842 19.8842 51.6898 19.5953 51.5036 19.406C51.3174 19.2168 51.0853 19.1222 50.8098 19.1222C50.5496 19.1222 50.3277 19.2168 50.1415 19.4086C49.9579 19.5978 49.866 19.8868 49.866 20.2703Z" fill="#656464"/>
<path d="M53.2279 21.7637V19.1708H52.7407V18.7745H53.2279V18.4574C53.2279 18.2247 53.2611 18.0483 53.3248 17.9332C53.3886 17.8156 53.4881 17.7261 53.6233 17.6647C53.7559 17.6033 53.9243 17.5726 54.1283 17.5726C54.2865 17.5726 54.4574 17.5905 54.6461 17.6238L54.5645 18.0662C54.4497 18.0483 54.3426 18.038 54.2406 18.038C54.0773 18.038 53.9574 18.0713 53.8886 18.1352C53.8171 18.1991 53.7814 18.3219 53.7814 18.5009V18.7745H54.4191V19.1708H53.7814V21.7637H53.2305H53.2279Z" fill="#656464"/>
<path d="M56.7939 21.7637V17.6417H57.3908V19.3319H59.7248V17.6417H60.3216V21.7637H59.7248V19.8203H57.3908V21.7637H56.7939Z" fill="#656464"/>
<path d="M63.5534 20.8048L64.1222 20.8688C64.0278 21.1884 63.8569 21.4288 63.6095 21.5899C63.3621 21.7535 63.0534 21.8328 62.6887 21.8328C62.227 21.8328 61.8546 21.6998 61.5689 21.4364C61.2832 21.173 61.1404 20.792 61.1404 20.2934C61.1404 19.7948 61.2832 19.3831 61.5715 19.112C61.8597 18.841 62.2244 18.7054 62.6657 18.7054C63.107 18.7054 63.4386 18.8384 63.7192 19.1069C63.9998 19.3754 64.1426 19.7615 64.1426 20.2678V20.4034H61.7066C61.7296 20.7409 61.8316 20.994 62.0178 21.1654C62.2015 21.3367 62.426 21.4211 62.6912 21.4211C63.1045 21.4211 63.3927 21.2165 63.5559 20.8048H63.5534ZM61.7398 19.9891H63.5585C63.533 19.7283 63.459 19.5314 63.3366 19.4035C63.1606 19.2169 62.9336 19.1223 62.6606 19.1223C62.4132 19.1223 62.204 19.2015 62.028 19.3575C61.8546 19.5135 61.7577 19.7257 61.7398 19.9917V19.9891Z" fill="#656464"/>
<path d="M67.0198 21.3955C66.8362 21.5387 66.6423 21.6486 66.4434 21.7228C66.2444 21.7969 66.0378 21.8327 65.8235 21.8327C65.4843 21.8327 65.2139 21.756 65.0124 21.6026C64.8109 21.4492 64.7089 21.242 64.7089 20.9787C64.7089 20.8048 64.7573 20.6513 64.8517 20.5184C64.9461 20.3854 65.0762 20.2806 65.242 20.2064C65.4078 20.1322 65.6552 20.076 65.9893 20.0402C66.4383 19.9916 66.7673 19.9354 66.9765 19.8689V19.7385C66.979 19.5313 66.9306 19.3881 66.8336 19.3037C66.6959 19.1836 66.4867 19.1222 66.2036 19.1222C65.9485 19.1222 65.7572 19.1631 65.6297 19.2424C65.5021 19.3216 65.4103 19.4751 65.3491 19.695L64.7981 19.6208C64.8747 19.3012 65.0328 19.0711 65.2675 18.9253C65.5021 18.7795 65.8414 18.7079 66.2801 18.7079C66.6219 18.7079 66.8898 18.7565 67.0836 18.8537C67.2775 18.9509 67.3999 19.0711 67.4509 19.2117C67.5019 19.3523 67.5274 19.562 67.5274 19.8356V20.5107C67.5274 20.9838 67.5402 21.2829 67.5632 21.4057C67.5861 21.5284 67.6346 21.6486 67.706 21.7637H67.1321C67.0734 21.6614 67.0351 21.5387 67.0173 21.3955H67.0198ZM66.9765 20.2627C66.775 20.3368 66.474 20.4007 66.0735 20.4519C65.8414 20.4826 65.6781 20.5158 65.5863 20.5542C65.4945 20.5925 65.4231 20.6462 65.3721 20.7178C65.321 20.7894 65.2955 20.8687 65.2955 20.9633C65.2955 21.1065 65.3542 21.2216 65.4715 21.306C65.5889 21.3929 65.7521 21.4338 65.9587 21.4338C66.1653 21.4338 66.3362 21.3955 66.4969 21.3187C66.6576 21.242 66.7775 21.1397 66.8591 21.0093C66.9382 20.8815 66.979 20.6923 66.979 20.4468V20.2601L66.9765 20.2627Z" fill="#656464"/>
<path d="M68.4508 21.7637V17.6417H69.0018V21.7637H68.4508Z" fill="#656464"/>
<path d="M71.1648 21.3086L71.2388 21.7561C71.0857 21.7868 70.9506 21.8021 70.8281 21.8021C70.6368 21.8021 70.4812 21.774 70.3639 21.7152C70.2466 21.6589 70.1675 21.5796 70.1216 21.4799C70.0782 21.3802 70.0553 21.1833 70.0553 20.8867V19.1683H69.6548V18.7719H70.0553V18.0355L70.6062 17.7312V18.7719H71.1623V19.1683H70.6062V20.9148C70.6062 21.0759 70.6215 21.1807 70.6547 21.2268C70.7031 21.2932 70.7899 21.329 70.9199 21.329C70.9812 21.329 71.0628 21.3214 71.1623 21.306L71.1648 21.3086Z" fill="#656464"/>
<path d="M71.7617 21.7637V17.6417H72.3127V19.1171C72.4428 18.979 72.5882 18.8767 72.7514 18.8077C72.9147 18.7387 73.0958 18.7054 73.2922 18.7054C73.6391 18.7054 73.912 18.7872 74.1135 18.956C74.315 19.1222 74.4145 19.4265 74.4145 19.8689V21.7637H73.8635V19.8689C73.8635 19.6106 73.8023 19.424 73.6799 19.3114C73.5574 19.1989 73.3891 19.1427 73.1748 19.1427C72.9351 19.1427 72.731 19.2143 72.5626 19.36C72.3943 19.5032 72.3101 19.7615 72.3101 20.1297V21.7663H71.7592L71.7617 21.7637Z" fill="#656464"/>
<path d="M79.2763 21.3955C79.0927 21.5387 78.8988 21.6486 78.6998 21.7228C78.5009 21.7969 78.2943 21.8327 78.08 21.8327C77.7408 21.8327 77.4704 21.756 77.2689 21.6026C77.0674 21.4492 76.9653 21.242 76.9653 20.9787C76.9653 20.8048 77.0138 20.6513 77.1082 20.5184C77.2026 20.3854 77.3326 20.2806 77.4984 20.2064C77.6642 20.1322 77.9117 20.076 78.2458 20.0402C78.6947 19.9916 79.0238 19.9354 79.233 19.8689V19.7385C79.2355 19.5313 79.187 19.3881 79.0901 19.3037C78.9524 19.1836 78.7432 19.1222 78.4601 19.1222C78.205 19.1222 78.0137 19.1631 77.8862 19.2424C77.7586 19.3216 77.6668 19.4751 77.6056 19.695L77.0546 19.6208C77.1311 19.3012 77.2893 19.0711 77.5239 18.9253C77.7586 18.7795 78.0979 18.7079 78.5366 18.7079C78.8784 18.7079 79.1462 18.7565 79.3401 18.8537C79.5339 18.9509 79.6564 19.0711 79.7074 19.2117C79.7584 19.3549 79.7839 19.562 79.7839 19.8356V20.5107C79.7839 20.9838 79.7967 21.2829 79.8196 21.4057C79.8426 21.5284 79.891 21.6486 79.9625 21.7637H79.3885C79.3299 21.6614 79.2916 21.5387 79.2738 21.3955H79.2763ZM79.233 20.2627C79.0314 20.3368 78.7305 20.4007 78.33 20.4519C78.0979 20.4826 77.9346 20.5158 77.8428 20.5542C77.751 20.5925 77.6796 20.6462 77.6285 20.7178C77.5775 20.7894 77.552 20.8687 77.552 20.9633C77.552 21.1065 77.6107 21.2216 77.728 21.306C77.8453 21.3929 78.0086 21.4338 78.2152 21.4338C78.4218 21.4338 78.5927 21.3955 78.7534 21.3187C78.9141 21.242 79.034 21.1397 79.1156 21.0093C79.1947 20.8815 79.2355 20.6923 79.2355 20.4468V20.2601L79.233 20.2627Z" fill="#656464"/>
<path d="M80.7251 21.7637V18.7745H81.2251V19.1964C81.3449 19.0328 81.4903 18.91 81.6638 18.8282C81.8372 18.7464 82.0336 18.7054 82.2581 18.7054C82.4316 18.7054 82.5923 18.731 82.7402 18.7822C82.8881 18.8333 83.008 18.9023 83.0973 18.9842C83.1891 19.0686 83.2555 19.176 83.3014 19.3089C83.3473 19.4419 83.3677 19.6465 83.3677 19.9226V21.7612H82.8167V19.9405C82.8167 19.7206 82.7912 19.5595 82.7428 19.4572C82.6917 19.3549 82.6152 19.2782 82.5081 19.222C82.4035 19.1657 82.2785 19.1376 82.1408 19.1376C81.8755 19.1376 81.6663 19.2117 81.5107 19.3601C81.3551 19.5084 81.2761 19.7641 81.2761 20.1246V21.7586H80.7251V21.7637Z" fill="#656464"/>
<path d="M86.403 21.7637V21.3904C86.3035 21.5336 86.176 21.6435 86.0179 21.7202C85.8597 21.7944 85.6914 21.8328 85.5103 21.8328C85.1251 21.8328 84.7935 21.6972 84.5129 21.4236C84.2323 21.15 84.092 20.7664 84.092 20.2704C84.092 19.9303 84.1533 19.6413 84.2783 19.4061C84.4032 19.1683 84.569 18.9944 84.7782 18.8793C84.9848 18.7642 85.2169 18.708 85.472 18.708C85.6531 18.708 85.8215 18.7438 85.9771 18.8154C86.1326 18.887 86.2602 18.9867 86.3648 19.1146V17.6442H86.9208V21.7663H86.4056L86.403 21.7637ZM84.6609 20.2729C84.6609 20.6616 84.7501 20.948 84.9287 21.1372C85.1072 21.3265 85.3139 21.4185 85.5511 21.4185C85.7883 21.4185 85.9872 21.329 86.1607 21.1475C86.3316 20.9659 86.4183 20.6948 86.4183 20.3292C86.4183 19.9098 86.3316 19.603 86.1607 19.4086C85.9898 19.2168 85.773 19.1197 85.5103 19.1197C85.2781 19.1197 85.0792 19.2117 84.9134 19.3984C84.7476 19.5851 84.6634 19.8766 84.6634 20.2729H84.6609Z" fill="#656464"/>
<path d="M90.5532 21.7637L89.3671 17.6417H89.9741L90.6577 20.3445C90.7292 20.6207 90.7929 20.902 90.8491 21.1884L91.0506 20.4263L91.9102 17.6442H92.6244L93.2672 19.7308C93.4253 20.2397 93.5401 20.7255 93.6192 21.1909C93.6753 20.9224 93.7493 20.6232 93.8411 20.2934L94.5476 17.6442H95.1471L93.9125 21.7663H93.3386L92.3897 18.6261L92.2469 18.1429C92.2035 18.3219 92.1601 18.483 92.1168 18.6261L91.1628 21.7663H90.5557L90.5532 21.7637Z" fill="#656464"/>
<path d="M97.8076 20.8048L98.3764 20.8688C98.282 21.1884 98.1111 21.4288 97.8637 21.5899C97.6162 21.7535 97.3102 21.8328 96.9428 21.8328C96.4812 21.8328 96.1087 21.6998 95.8231 21.4364C95.5374 21.173 95.3945 20.792 95.3945 20.2934C95.3945 19.7948 95.5374 19.3831 95.8256 19.112C96.1138 18.841 96.4786 18.7054 96.9199 18.7054C97.3612 18.7054 97.6928 18.8384 97.9734 19.1069C98.2539 19.3754 98.3968 19.7615 98.3968 20.2678V20.4034H95.9608C95.9838 20.7409 96.0858 20.994 96.272 21.1654C96.4556 21.3367 96.6801 21.4211 96.9454 21.4211C97.3586 21.4211 97.6469 21.2165 97.8076 20.8048ZM95.994 19.9891H97.8127C97.7871 19.7283 97.7132 19.5314 97.5907 19.4035C97.4147 19.2169 97.1877 19.1223 96.9122 19.1223C96.6648 19.1223 96.4557 19.2015 96.2797 19.3575C96.1062 19.5135 96.0093 19.7257 95.9914 19.9917L95.994 19.9891Z" fill="#656464"/>
<path d="M99.1339 21.7637V17.6417H99.6849V21.7637H99.1339Z" fill="#656464"/>
<path d="M100.779 21.7637V19.1708H100.292V18.7745H100.779V18.4574C100.779 18.2247 100.812 18.0483 100.876 17.9332C100.94 17.8156 101.039 17.7261 101.174 17.6647C101.307 17.6033 101.475 17.5726 101.679 17.5726C101.838 17.5726 102.009 17.5905 102.197 17.6238L102.116 18.0662C102.001 18.0483 101.894 18.038 101.792 18.038C101.628 18.038 101.509 18.0713 101.44 18.1352C101.368 18.1991 101.333 18.3219 101.333 18.5009V18.7745H101.97V19.1708H101.333V21.7637H100.782H100.779Z" fill="#656464"/>
<path d="M104.567 21.3955C104.383 21.5387 104.189 21.6486 103.99 21.7228C103.792 21.7969 103.585 21.8327 103.371 21.8327C103.031 21.8327 102.761 21.756 102.56 21.6026C102.358 21.4492 102.256 21.242 102.256 20.9787C102.256 20.8048 102.304 20.6513 102.399 20.5184C102.493 20.3854 102.623 20.2806 102.789 20.2064C102.955 20.1322 103.202 20.076 103.536 20.0402C103.985 19.9916 104.314 19.9354 104.524 19.8689V19.7385C104.526 19.5313 104.478 19.3881 104.381 19.3037C104.243 19.1836 104.034 19.1222 103.751 19.1222C103.496 19.1222 103.304 19.1631 103.177 19.2424C103.049 19.3216 102.957 19.4751 102.896 19.695L102.345 19.6208C102.422 19.3012 102.58 19.0711 102.815 18.9253C103.049 18.7795 103.389 18.7079 103.827 18.7079C104.169 18.7079 104.437 18.7565 104.631 18.8537C104.825 18.9509 104.947 19.0711 104.998 19.2117C105.049 19.3549 105.075 19.562 105.075 19.8356V20.5107C105.075 20.9838 105.087 21.2829 105.11 21.4057C105.133 21.5284 105.182 21.6486 105.253 21.7637H104.679C104.621 21.6614 104.582 21.5387 104.564 21.3955H104.567ZM104.524 20.2627C104.322 20.3368 104.021 20.4007 103.621 20.4519C103.389 20.4826 103.225 20.5158 103.133 20.5542C103.042 20.5925 102.97 20.6462 102.919 20.7178C102.868 20.7894 102.843 20.8687 102.843 20.9633C102.843 21.1065 102.901 21.2216 103.019 21.306C103.136 21.3929 103.299 21.4338 103.506 21.4338C103.712 21.4338 103.883 21.3955 104.044 21.3187C104.205 21.242 104.325 21.1397 104.406 21.0093C104.485 20.8815 104.526 20.6923 104.526 20.4468V20.2601L104.524 20.2627Z" fill="#656464"/>
<path d="M106.016 21.7637V18.7745H106.516V19.2245C106.643 19.0149 106.761 18.8742 106.865 18.8077C106.972 18.7387 107.09 18.7054 107.222 18.7054C107.406 18.7054 107.595 18.7591 107.789 18.8665L107.6 19.337C107.462 19.2654 107.33 19.2271 107.199 19.2271C107.082 19.2271 106.975 19.2578 106.878 19.3191C106.781 19.3805 106.712 19.4675 106.671 19.5774C106.603 19.7718 106.567 19.9763 106.567 20.1937V21.7586H106.016V21.7637Z" fill="#656464"/>
<path d="M110.408 20.8048L110.977 20.8688C110.883 21.1884 110.712 21.4288 110.464 21.5899C110.217 21.7535 109.911 21.8328 109.544 21.8328C109.082 21.8328 108.709 21.6998 108.424 21.4364C108.138 21.173 107.995 20.792 107.995 20.2934C107.995 19.7948 108.138 19.3831 108.426 19.112C108.715 18.841 109.079 18.7054 109.521 18.7054C109.962 18.7054 110.293 18.8384 110.577 19.1069C110.857 19.3754 111 19.7615 111 20.2678V20.4034H108.564C108.587 20.7409 108.689 20.994 108.875 21.1654C109.059 21.3367 109.283 21.4211 109.549 21.4211C109.962 21.4211 110.25 21.2165 110.413 20.8048H110.408ZM108.595 19.9891H110.413C110.388 19.7283 110.314 19.5314 110.191 19.4035C110.013 19.2169 109.788 19.1223 109.513 19.1223C109.266 19.1223 109.054 19.2015 108.88 19.3575C108.707 19.5135 108.61 19.7257 108.592 19.9917L108.595 19.9891Z" fill="#656464"/>
<path d="M30.4243 6.67428C31.0288 6.93766 31.3298 7.09109 31.3298 7.13712C31.3298 7.19593 31.3043 7.22406 31.2507 7.22406C31.1385 7.23684 31.0568 7.27264 31.0135 7.3289C30.7865 7.74827 30.5594 8.10115 30.3324 8.3901V13.1207C30.3324 13.2051 30.2712 13.246 30.1513 13.246H29.6998C29.6106 13.246 29.5646 13.2051 29.5646 13.1207V9.2007C29.3682 9.37969 29.1106 9.59193 28.7943 9.83742C28.7204 9.83742 28.6438 9.80929 28.5673 9.75047C28.4678 9.67888 28.3581 9.60472 28.2383 9.52801C28.1847 9.49477 28.1592 9.45641 28.1592 9.41294C28.4245 9.20837 28.6872 8.9859 28.9525 8.74809C29.2994 8.44635 29.6004 8.1037 29.858 7.72525C30.0824 7.39794 30.2559 7.07063 30.3783 6.751C30.386 6.69985 30.4013 6.67428 30.4243 6.67428ZM30.3809 4.27828C30.9854 4.54166 31.2864 4.69764 31.2864 4.74111C31.2864 4.79993 31.2609 4.82806 31.2073 4.82806C31.0926 4.84084 31.0135 4.8792 30.9701 4.94313C30.6538 5.41875 30.3401 5.7793 30.0289 6.02478C29.8631 6.17821 29.5723 6.39556 29.1565 6.67173C29.0724 6.67173 29.0009 6.64615 28.9423 6.59501C28.8351 6.51063 28.7229 6.43392 28.603 6.36232C28.5495 6.32907 28.5239 6.29583 28.5239 6.25492C28.7433 6.10149 28.9627 5.94295 29.182 5.78185C29.4601 5.5645 29.7024 5.31902 29.9064 5.04797C30.0952 4.81016 30.238 4.57746 30.3375 4.35244C30.3452 4.30129 30.3605 4.27572 30.3834 4.27572L30.3809 4.27828ZM34.5973 10.8858V11.6555H35.9568C36.0181 11.6555 36.0461 11.6939 36.0461 11.7731V12.0851C36.0461 12.1899 36.0155 12.2411 35.9568 12.2411H34.5973V13.1284C34.5973 13.2128 34.5412 13.2537 34.4289 13.2537H33.9672C33.878 13.2537 33.8321 13.2128 33.8321 13.1284V12.2411H30.8859C30.8247 12.2411 30.7967 12.1899 30.7967 12.0851V11.7731C30.7967 11.6964 30.8273 11.6555 30.8859 11.6555H31.6563V10.4179C31.6563 10.3463 31.7022 10.3105 31.7915 10.3105H33.8295V9.7607C33.8295 9.70956 33.8754 9.68399 33.9647 9.68399C34.5055 9.68399 34.7784 9.72235 34.7784 9.79906C34.7784 9.88344 34.7478 9.92691 34.6866 9.93459C34.6253 9.9397 34.5947 9.99851 34.5947 10.1085V10.3105H35.7732C35.8421 10.3105 35.8752 10.3463 35.8752 10.4179V10.7401C35.8752 10.8372 35.8421 10.8858 35.7732 10.8858H34.5947H34.5973ZM31.6971 5.12468H32.8985C32.9597 4.86641 33.0107 4.59792 33.0566 4.31408C33.0796 4.26294 33.1255 4.23737 33.1918 4.23737L33.8142 4.37289C33.9137 4.39335 33.9622 4.43938 33.9622 4.51865C33.9622 4.60815 33.9137 4.65417 33.8142 4.65417C33.753 4.67463 33.7122 4.71554 33.6892 4.77947C33.6663 4.90221 33.6484 5.01728 33.6331 5.12724H35.2299C35.3498 5.12724 35.411 5.16559 35.411 5.24231V6.55666H35.7732C35.8421 6.55666 35.8752 6.59501 35.8752 6.67428V6.99648C35.8752 7.06808 35.8421 7.10388 35.7732 7.10388H31.4216C31.3604 7.10388 31.3298 7.06808 31.3298 6.99648V6.67428C31.3298 6.59757 31.3604 6.55666 31.4216 6.55666H32.6C32.6613 6.28816 32.725 5.99154 32.7939 5.6719H31.6945C31.6333 5.6719 31.6053 5.63354 31.6053 5.55427V5.24231C31.6053 5.16559 31.6359 5.12468 31.6945 5.12468H31.6971ZM31.9241 7.71247H35.3676C35.4875 7.71247 35.5487 7.75338 35.5487 7.83776V9.37714C35.5487 9.46152 35.4875 9.50244 35.3676 9.50244H31.9241C31.8042 9.50244 31.743 9.46152 31.743 9.37714V7.83776C31.743 7.75338 31.8042 7.71247 31.9241 7.71247ZM32.4215 10.8858V11.6555H33.8295V10.8858H32.4215ZM34.7809 8.9501V8.26991H32.5082V8.9501H34.7809ZM33.3194 6.55666H34.6458V5.6719H33.5234C33.4545 5.99154 33.3882 6.28816 33.3194 6.55666ZM36.143 7.07319H38.9948C39.0866 7.07319 39.13 7.12178 39.13 7.21895V7.53091C39.13 7.63575 39.0841 7.68689 38.9948 7.68689H38.1785V12.6298C38.1785 13.0926 37.7424 13.3253 36.8675 13.3253H36.5052C36.4593 13.3253 36.4364 13.2665 36.4364 13.1514C36.4287 13.0159 36.3752 12.8548 36.2782 12.6681V12.6298C36.467 12.6809 36.6481 12.7065 36.8215 12.7065C37.2144 12.7065 37.4108 12.594 37.4108 12.3689V7.68689H36.1405C36.0487 7.68689 36.0053 7.63575 36.0053 7.53091V7.21895C36.0053 7.12178 36.0512 7.07319 36.1405 7.07319H36.143ZM36.5894 4.99171H38.6734C38.7652 4.99171 38.8086 5.0403 38.8086 5.13747V5.44943C38.8086 5.55427 38.7627 5.60542 38.6734 5.60542H36.5894C36.4976 5.60542 36.4542 5.55427 36.4542 5.44943V5.13747C36.4542 5.0403 36.5002 4.99171 36.5894 4.99171Z" fill="#656464"/>
<path d="M47.9224 4.52633L48.7489 4.76669C48.8331 4.81783 48.8739 4.86386 48.8739 4.90222C48.8739 4.9866 48.828 5.03775 48.7387 5.05565C48.6469 5.05565 48.5907 5.10167 48.5678 5.19117C48.4326 5.60286 48.3101 5.94807 48.2056 6.22424H50.9578V4.47774C50.9578 4.40103 51.019 4.36267 51.1389 4.36267C51.7129 4.36267 51.9985 4.40103 51.9985 4.47774C51.9985 4.56724 51.9603 4.61838 51.8863 4.63117C51.8098 4.63628 51.7741 4.70277 51.7741 4.82551V6.22424H55.5798C55.6716 6.22424 55.715 6.26004 55.715 6.33164V6.72032C55.715 6.82516 55.6691 6.8763 55.5798 6.8763H51.7741V9.07541H55.0365C55.1258 9.07541 55.1717 9.12399 55.1717 9.22116V9.54336C55.1717 9.64053 55.1258 9.68911 55.0365 9.68911H51.7741V12.3178H56.1257C56.2175 12.3178 56.2609 12.3587 56.2609 12.4431V12.8267C56.2609 12.9238 56.2149 12.9699 56.1257 12.9699H46.0655C45.9737 12.9699 45.9303 12.9213 45.9303 12.8267V12.4431C45.9303 12.3587 45.9762 12.3178 46.0655 12.3178H50.9604V9.68911H47.425C47.3332 9.68911 47.2899 9.64053 47.2899 9.54336V9.22116C47.2899 9.12399 47.3358 9.07541 47.425 9.07541H50.9604V6.8763H47.9122C47.7541 7.19082 47.5883 7.49001 47.4123 7.77384C47.2082 8.07047 46.9863 8.33641 46.744 8.57422C46.6445 8.57422 46.5578 8.56143 46.4838 8.53586C46.3257 8.47705 46.1675 8.4259 46.0094 8.38243C45.9558 8.35686 45.9303 8.33385 45.9303 8.31595C45.9303 8.26992 45.9456 8.23924 45.9762 8.21878C46.3537 7.8659 46.6853 7.43119 46.9736 6.91466C47.147 6.61548 47.2975 6.30095 47.4276 5.96342C47.5704 5.61054 47.7082 5.16049 47.8357 4.61071C47.8587 4.5519 47.8893 4.52377 47.9275 4.52377L47.9224 4.52633Z" fill="#656464"/>
<path d="M63.7829 8.02698L64.6094 8.19064C64.6936 8.22388 64.7344 8.26223 64.7344 8.3057C64.7344 8.38242 64.7012 8.42589 64.6324 8.431C64.5201 8.46936 64.4461 8.57931 64.4181 8.75831C64.4181 9.93714 64.3849 10.7503 64.3161 11.2003C64.2319 11.6325 64.1452 12.0161 64.0559 12.3485C64.0559 12.4073 64.01 12.4354 63.9207 12.4354C63.4667 12.3127 63.2422 12.2334 63.2422 12.1951C63.4156 11.6734 63.5253 11.2489 63.5712 10.9216C63.6401 10.2977 63.6809 9.36435 63.6962 8.12159C63.6962 8.05767 63.7268 8.02442 63.7855 8.02442L63.7829 8.02698ZM63.3774 6.67172H67.3642C67.456 6.67172 67.4994 6.72286 67.4994 6.82514V7.132C67.4994 7.23428 67.4535 7.28542 67.3642 7.28542H65.8695V13.1182C65.8695 13.2026 65.8083 13.2435 65.6884 13.2435H65.2343C65.1144 13.2435 65.0532 13.2026 65.0532 13.1182V7.28542H63.3774C63.2856 7.28542 63.2422 7.23428 63.2422 7.132V6.82514C63.2422 6.72286 63.2881 6.67172 63.3774 6.67172ZM63.9181 4.74366H66.8643C66.9561 4.74366 66.9994 4.79481 66.9994 4.89709V5.20394C66.9994 5.3139 66.9535 5.3676 66.8643 5.3676H63.9181C63.8289 5.3676 63.7829 5.3139 63.7829 5.20394V4.89709C63.7829 4.79481 63.8289 4.74366 63.9181 4.74366ZM66.6832 8.06278H67.0913C67.2112 8.06278 67.2724 8.11648 67.2724 8.22644C67.1805 8.59466 67.1372 8.95009 67.1372 9.29786C67.1372 10.2517 67.2724 11.1287 67.5453 11.9342C67.5453 11.9803 67.507 12.0109 67.4305 12.0314C67.0377 12.0646 66.8184 12.08 66.7724 12.08L66.7036 11.9342C66.5684 10.7426 66.4995 9.50754 66.4995 8.22644C66.4995 8.11648 66.5607 8.06278 66.6806 8.06278H66.6832ZM68.0402 8.90918H73.435C73.5549 8.90918 73.6161 8.94754 73.6161 9.02425V13.1182C73.6161 13.2026 73.5549 13.2435 73.435 13.2435H72.981C72.8611 13.2435 72.7999 13.2026 72.7999 13.1182V12.732H68.6727V13.1182C68.6727 13.2026 68.6115 13.2435 68.4916 13.2435H68.0376C67.9177 13.2435 67.8565 13.2026 67.8565 13.1182V9.07028C67.8565 8.96032 67.9177 8.90662 68.0376 8.90662L68.0402 8.90918ZM68.0402 4.62604H73.5243C73.6161 4.62604 73.6595 4.67718 73.6595 4.77946V5.08632C73.6595 5.1886 73.6136 5.23974 73.5243 5.23974H68.0402C67.9483 5.23974 67.905 5.1886 67.905 5.08632V4.77946C67.905 4.67718 67.9509 4.62604 68.0402 4.62604ZM68.4942 5.90203H73.0243C73.1442 5.90203 73.2054 5.94039 73.2054 6.0171V8.13182C73.2054 8.21365 73.1442 8.25712 73.0243 8.25712H68.4942C68.3743 8.25712 68.3131 8.21621 68.3131 8.13182V6.0171C68.3131 5.94039 68.3743 5.90203 68.4942 5.90203ZM68.6727 10.4946H70.3511V9.53056H68.6727V10.4946ZM68.6727 12.1209H70.3511V11.1185H68.6727V12.1209ZM72.3917 7.63319V6.51318H69.1293V7.63319H72.3917ZM71.1674 9.53056V10.4946H72.7973V9.53056H71.1674ZM71.1674 12.1183H72.7973V11.116H71.1674V12.1183Z" fill="#656464"/>
<path d="M85.8113 4.98656C85.7654 4.98656 85.7017 4.99679 85.6175 5.01469C85.3012 5.12465 84.9186 5.22437 84.4722 5.31387C84.388 5.33944 84.3064 5.3599 84.2222 5.37269V7.10129H86.398C86.4873 7.10129 86.5332 7.15243 86.5332 7.25471V7.56156C86.5332 7.66385 86.4873 7.71499 86.398 7.71499H84.3472C84.5819 8.13435 84.7962 8.46933 84.9926 8.71993C85.2502 9.06002 85.6838 9.45382 86.296 9.89875C86.3649 9.92432 86.398 9.95757 86.398 9.99592C86.398 10.0215 86.3725 10.0496 86.319 10.0829C86.2348 10.1724 86.1225 10.2721 85.9797 10.382C85.9338 10.4332 85.893 10.4588 85.8547 10.4588C85.8088 10.4588 85.7425 10.4383 85.6506 10.3999C85.2349 10.065 84.8676 9.68396 84.5513 9.25948C84.4365 9.10605 84.3294 8.94495 84.2222 8.77619V13.1693C84.2222 13.2409 84.161 13.2767 84.0411 13.2767H83.5871C83.4672 13.2767 83.406 13.2409 83.406 13.1693V9.07537C83.3601 9.14697 83.3193 9.21089 83.281 9.26715C83.0157 9.65327 82.73 10.0164 82.4188 10.359C82.0719 10.7119 81.7199 11.0162 81.3654 11.2668C81.2761 11.2668 81.2072 11.2463 81.1613 11.208C81.0185 11.0852 80.8705 10.9727 80.7201 10.8705C80.6971 10.8244 80.6869 10.7937 80.6869 10.7733C81.0185 10.561 81.294 10.3565 81.5133 10.157C81.822 9.89364 82.1485 9.5382 82.4877 9.09582C82.6918 8.81966 82.9698 8.35938 83.3269 7.71499H80.868C80.7762 7.71499 80.7328 7.66385 80.7328 7.56156V7.25471C80.7328 7.15243 80.7787 7.10129 80.868 7.10129H83.406V5.50821C83.2708 5.52867 83.1382 5.54401 83.0106 5.5568C82.475 5.60794 81.9878 5.63351 81.549 5.63351C81.4215 5.63351 81.3373 5.58748 81.2991 5.49798C81.1996 5.37524 81.0874 5.23972 80.9598 5.0914C80.9598 5.0198 81.0057 4.98656 81.095 4.98656H81.7761C82.3194 4.98656 82.7913 4.95843 83.1917 4.89962C83.5539 4.87405 83.9136 4.81524 84.2681 4.72574C84.6839 4.63624 85.0359 4.51094 85.3216 4.34984C85.3599 4.33194 85.3854 4.32172 85.4007 4.32172C85.4925 4.32172 85.5563 4.33706 85.5945 4.3703C86.0409 4.69761 86.2628 4.90474 86.2628 4.98912C86.2628 5.06072 86.2169 5.09396 86.1277 5.09396L85.8113 4.98912V4.98656ZM87.4846 5.51588C88.0586 5.51588 88.3468 5.55424 88.3468 5.63095C88.3468 5.72045 88.3085 5.77415 88.2346 5.78438C88.1606 5.79205 88.1223 5.85598 88.1223 5.97872V10.96C88.1223 11.0367 88.0611 11.075 87.9412 11.075H87.4872C87.3673 11.075 87.3061 11.0367 87.3061 10.96V5.63095C87.3061 5.55424 87.3673 5.51588 87.4872 5.51588H87.4846ZM89.839 4.43423L90.8287 4.54163C90.9333 4.57998 90.9868 4.60811 90.9868 4.62857C90.9868 4.70017 90.9307 4.73341 90.8159 4.73341C90.6501 4.79222 90.566 4.96099 90.566 5.24483V12.4661C90.566 12.9877 90.1425 13.2486 89.2931 13.2486H88.4769C88.4157 13.2486 88.3851 13.1846 88.3851 13.0542C88.3545 12.9264 88.2779 12.7678 88.158 12.5812C88.158 12.5044 88.1887 12.4661 88.2473 12.4661C88.6019 12.5428 88.9207 12.5812 89.1988 12.5812C89.5304 12.5812 89.6962 12.4661 89.6962 12.2334V5.20392C89.6962 4.99168 89.6885 4.83058 89.6732 4.72062C89.6579 4.63624 89.6502 4.56976 89.6502 4.51861C89.6502 4.4598 89.7115 4.43167 89.8313 4.43167L89.839 4.43423Z" fill="#656464"/>
<path d="M98.1365 8.30822H104.039C104.123 8.30822 104.164 8.3568 104.164 8.45397V8.76594C104.164 8.87078 104.123 8.92192 104.039 8.92192H98.1365C98.0472 8.92192 98.0013 8.87078 98.0013 8.76594V8.45397C98.0013 8.3568 98.0472 8.30822 98.1365 8.30822ZM100.896 4.23987C101.47 4.23987 101.759 4.27822 101.759 4.35494C101.759 4.44444 101.72 4.49302 101.646 4.50069C101.572 4.51348 101.534 4.57996 101.534 4.7027V5.47495H103.756C103.845 5.47495 103.891 5.52609 103.891 5.62837V5.93523C103.891 6.03751 103.845 6.08865 103.756 6.08865H98.3635C98.2794 6.08865 98.2386 6.03751 98.2386 5.93523V5.62837C98.2386 5.52609 98.2794 5.47495 98.3635 5.47495H100.72V4.35494C100.72 4.27822 100.782 4.23987 100.902 4.23987H100.896ZM98.8584 9.68905H103.215C103.335 9.68905 103.396 9.72741 103.396 9.80412V13.1207C103.396 13.2051 103.335 13.246 103.215 13.246H102.761C102.649 13.246 102.59 13.2051 102.59 13.1207V12.6578H99.4935V13.1207C99.4935 13.2051 99.4323 13.246 99.3124 13.246H98.8584C98.7385 13.246 98.6773 13.2051 98.6773 13.1207V9.84248C98.6773 9.74019 98.7385 9.68905 98.8584 9.68905ZM99.5879 6.28811C99.7843 6.62309 99.9399 6.9325 100.052 7.21633C100.18 7.46693 100.282 7.73798 100.358 8.02693C100.358 8.05251 100.101 8.11899 99.5879 8.22895C99.5573 8.04228 99.4935 7.81725 99.394 7.55387C99.2818 7.25213 99.1339 6.94784 98.9528 6.6461C98.9528 6.58729 99.1645 6.46966 99.5879 6.28811ZM99.4935 12.0441H102.59V10.313H99.4935V12.0441ZM102.59 6.22162L103.271 6.45432C103.383 6.49267 103.442 6.54382 103.442 6.60774C103.442 6.65377 103.409 6.68446 103.34 6.70491C103.264 6.70491 103.215 6.74327 103.192 6.81998C102.965 7.37999 102.738 7.81214 102.511 8.11388C102.465 8.19059 102.427 8.22895 102.399 8.22895C102.345 8.22895 102.282 8.20593 102.205 8.16246C102.047 8.09853 101.899 8.04483 101.764 7.99881C101.702 7.98091 101.672 7.96301 101.672 7.95022C101.672 7.92976 101.682 7.90931 101.705 7.88374C101.909 7.60757 102.065 7.36209 102.169 7.14985C102.32 6.8788 102.429 6.6103 102.498 6.33925C102.521 6.26254 102.552 6.22418 102.59 6.22418V6.22162ZM105.493 5.25248V13.1309C105.493 13.2153 105.429 13.2562 105.302 13.2562H104.85C104.73 13.2562 104.669 13.2153 104.669 13.1309V4.78453C104.669 4.70782 104.73 4.6669 104.85 4.6669H108.021C108.156 4.6669 108.255 4.68736 108.314 4.72572C108.51 4.84846 108.61 4.93796 108.61 4.9891L106.99 7.761C106.96 7.83259 106.944 7.88374 106.944 7.91442C106.944 7.96045 106.97 8.01159 107.023 8.06785C107.409 8.40794 107.732 8.82219 107.998 9.30293C108.263 9.80412 108.393 10.3079 108.393 10.8091C108.393 11.1492 108.314 11.4483 108.156 11.7066C107.99 11.9777 107.748 12.1643 107.431 12.2666C107.227 12.3817 106.881 12.4405 106.388 12.4405C106.192 12.4405 106.092 12.3817 106.092 12.2666C106.046 12.0288 105.98 11.8524 105.888 11.7373C105.888 11.6606 105.934 11.6222 106.023 11.6222L106.567 11.6989C106.929 11.6989 107.187 11.6094 107.337 11.4279C107.488 11.2745 107.564 11.0673 107.564 10.8091C107.564 10.4485 107.457 10.047 107.248 9.60211C106.983 9.10603 106.595 8.62274 106.08 8.15479C106.011 8.11643 105.978 8.07296 105.978 8.02949C105.978 7.99881 105.993 7.94511 106.023 7.87607L107.656 5.24992H105.493V5.25248Z" fill="#656464"/>
</svg>
