<svg width="85" height="30" viewBox="0 0 85 30" fill="none" xmlns="http://www.w3.org/2000/svg">
<path d="M46.1444 19.4982C44.9014 19.2187 43.8705 18.7441 43.0544 18.0744C42.2838 17.4416 41.6583 16.5925 41.1778 15.5247H39.8864V17.8634C40.6435 17.7606 41.4516 17.6419 42.3134 17.5101L42.3698 18.6676C40.9925 18.8891 39.3495 19.1396 37.438 19.4191L37.1346 18.2167C37.2608 18.2009 37.4648 18.1772 37.7414 18.1403C38.0716 18.1034 38.3239 18.0744 38.5038 18.0506V15.5247H36.6514V14.3672H38.5172V9.55792H45.6048V10.6284H39.8864V11.2137H45.288V12.2289H39.8864V12.7799H45.288V13.795H39.8864V14.3672H46.7727V15.5247H45.5699L46.4344 16.1206C45.8357 16.5477 45.1457 16.9617 44.3672 17.3677C45.1001 17.816 45.9726 18.1324 46.9847 18.3169C46.6492 18.6623 46.3673 19.0552 46.1417 19.4982H46.1444ZM43.4597 16.6743C44.0745 16.321 44.6464 15.9387 45.1779 15.5273H42.5711C42.81 15.9466 43.1054 16.3289 43.4571 16.6743H43.4597Z" fill="#585757"/>
<path d="M50.0749 19.5219C49.7688 19.2345 49.4117 18.9735 49.009 18.7388C49.3017 18.5252 49.5809 18.2563 49.852 17.9346C50.1205 17.6103 50.3353 17.2834 50.491 16.9538L51.7367 17.3176C51.5407 17.7158 51.291 18.1165 50.985 18.52C50.6843 18.9181 50.3809 19.253 50.0749 19.5245V19.5219ZM49.0976 16.8747V15.7277H50.1071V11.6356H49.2319V10.4887H50.1071V9.31799H51.3098V10.4887H52.7032V9.31799H53.9274V10.4887H54.6898V11.6356H53.9274V15.7277H54.612V16.8747H49.0976ZM51.3098 12.2737H52.7032V11.633H51.3098V12.2737ZM51.3098 13.9717H52.7032V13.2783H51.3098V13.9717ZM51.3098 15.7251H52.7032V14.9736H51.3098V15.7251ZM55.2187 19.5087C55.106 19.3901 54.9368 19.2503 54.714 19.0895C54.4885 18.9286 54.3059 18.8205 54.1636 18.7704C54.1797 18.7493 54.1985 18.7177 54.2254 18.6755C54.2522 18.636 54.2683 18.6043 54.2764 18.5832L53.3448 19.1027C53.1059 18.6386 52.7059 18.0849 52.1421 17.4363L53.1515 16.8958C53.7368 17.5286 54.1395 18.0295 54.365 18.396C54.6576 17.7843 54.8563 17.0144 54.961 16.0784C55.0362 15.4535 55.0737 14.6652 55.0737 13.7186V9.66867H59.2297V18.0295C59.2297 18.3591 59.1921 18.6175 59.1169 18.8021C59.0417 18.9866 58.9075 19.129 58.7115 19.2319C58.3974 19.4006 57.7987 19.4771 56.9154 19.4639C56.8564 19.0157 56.7275 18.5991 56.5342 18.2167C56.8027 18.2378 57.1624 18.2457 57.6135 18.2378H57.7155C57.8658 18.2378 57.941 18.1614 57.941 18.0058V15.8332H56.2335C56.0832 17.4284 55.7476 18.6544 55.2214 19.5061L55.2187 19.5087ZM56.3087 14.6652H57.9383V13.3073H56.3194V13.716C56.3194 14.1194 56.3168 14.4358 56.3087 14.6652ZM56.3194 12.1498H57.9383V10.8578H56.3194V12.1498Z" fill="#585757"/>
<path d="M63.0473 19.5324L61.756 18.9919C62.3171 18.338 62.7788 17.5787 63.1386 16.7191L64.4299 17.0724C63.995 18.0506 63.5359 18.8706 63.0473 19.5324ZM62.2607 16.6216V9.60538H65.8313V12.3291C66.43 12.1682 66.8837 11.9467 67.1898 11.6673C67.4529 11.4326 67.6381 11.1162 67.7509 10.7181H66.1562V9.57111H71.9417C71.9336 9.71876 71.9256 9.86641 71.9202 10.0114C71.8746 10.7919 71.8236 11.3561 71.7618 11.7094C71.6947 12.0918 71.5981 12.3502 71.4692 12.482C71.2893 12.6797 71.0316 12.7984 70.6933 12.8353C70.3712 12.8722 69.9416 12.8801 69.402 12.8564C69.3725 12.4583 69.2624 12.1102 69.0771 11.807C69.4584 11.836 69.7832 11.8518 70.0544 11.8518C70.2047 11.8518 70.3175 11.8149 70.3899 11.7411C70.4866 11.6462 70.5618 11.3034 70.6155 10.7154H69.0664C68.9375 11.3324 68.7174 11.8255 68.4033 12.1946C68.0355 12.6217 67.4959 12.9566 66.7871 13.1992H71.5954V16.4871H66.4945V13.2888L66.473 13.2994C66.3388 12.9619 66.124 12.656 65.834 12.3844V16.1021H63.5198V16.6216H62.2607ZM63.5198 12.1867H64.6098V10.7523H63.5198V12.1867ZM63.5198 14.9341H64.6098V13.3336H63.5198V14.9341ZM65.2165 19.4454C65.2165 18.7836 65.1441 18.0137 65.0045 17.1383L66.2394 16.996C66.4193 17.8924 66.5159 18.6439 66.532 19.2477L65.2192 19.4454H65.2165ZM67.9576 19.4006C67.8824 18.7836 67.6891 18.0216 67.3724 17.1172L68.6315 16.8958C68.9617 17.7131 69.1818 18.4593 69.2946 19.1343L67.9576 19.398V19.4006ZM67.7563 15.4298H70.2718V14.2486H67.7563V15.4298ZM70.9135 19.4902C70.6826 18.8574 70.2745 18.0638 69.6892 17.1067L70.9027 16.6426C71.5471 17.6288 71.982 18.396 72.2048 18.9471L70.9135 19.4876V19.4902Z" fill="#585757"/>
<path d="M80.3796 19.5113C80.2159 19.3189 79.993 19.1106 79.7165 18.8812H77.201V19.3769H76.2345V16.5082L76.1781 16.5741C76.1781 16.5741 76.1566 16.5477 76.1325 16.5187C76.0278 16.4001 75.9418 16.3051 75.8747 16.2313C75.7324 17.5101 75.4962 18.5621 75.166 19.3874C75.0774 19.2688 74.9351 19.1396 74.7445 18.9972C74.5539 18.8548 74.3874 18.7572 74.2451 18.7045C74.5216 17.9689 74.7096 17.0381 74.8062 15.9123C74.8733 15.1846 74.9082 14.2723 74.9082 13.1754V9.75567L75.4693 9.91123C76.9137 9.78731 78.0493 9.60274 78.8735 9.36017L79.7595 10.2197C78.801 10.4913 77.5553 10.6864 76.0197 10.8051V11.1795H79.7836V13.7291H78.3339L79.2548 13.9717C79.2252 14.0297 79.1769 14.122 79.1098 14.2485C79.0212 14.3962 78.9568 14.5069 78.9192 14.5781H79.84V15.3955H78.7849V15.7699H79.7407V16.4976H78.7849V16.8826H79.7514V17.6314H78.7849V18.0163H79.9313V18.512C80.4924 18.1745 80.9381 17.7922 81.2683 17.3651L82.3234 17.9821C82.0764 18.2616 81.773 18.5437 81.4132 18.8258C81.0535 19.1079 80.7099 19.3347 80.3796 19.5034V19.5113ZM75.9553 15.2848C76.2613 14.7996 76.4949 14.2802 76.6506 13.7291H76.0224V13.7845C76.0063 14.4305 75.9848 14.9314 75.9553 15.2848ZM76.0224 12.7588H78.5943V12.1524H76.0224V12.7588ZM77.3486 14.5781H77.9768C78.1191 14.1747 78.2077 13.89 78.2453 13.7291H76.8412L77.5822 13.9163C77.5151 14.1378 77.4372 14.3567 77.3459 14.5781H77.3486ZM77.2037 15.7699H77.9097V15.3955H77.2037V15.7699ZM77.2037 16.8852H77.9097V16.5003H77.2037V16.8852ZM77.2037 18.0216H77.9097V17.6367H77.2037V18.0216ZM80.3045 17.2728V11.4247H81.6522C81.6737 11.2691 81.7005 11.0397 81.73 10.7286H80.079V9.62647H84.7181V10.7286H83.0563C82.9892 10.9712 82.922 11.2032 82.8549 11.4247H84.5409V17.2728H80.3072H80.3045ZM81.3945 13.0911H83.4053V12.4187H81.3945V13.0911ZM81.3945 14.6915H83.4053V14.0086H81.3945V14.6915ZM81.3945 16.292H83.4053V15.6196H81.3945V16.292ZM84.0013 19.5008C83.7248 19.1027 83.263 18.6043 82.6187 18.0005L83.561 17.4152C84.2134 17.9662 84.6912 18.4408 85 18.839L84.0013 19.5008Z" fill="#585757"/>
<path d="M38.1628 25.0009V25.3568H36.6514V22.7175H37.0621V25.0009H38.1628Z" fill="#585757"/>
<path d="M39.6932 22.6674C40.4664 22.6674 40.9309 23.2079 40.9309 24.0253C40.9309 24.8427 40.4557 25.3885 39.6986 25.3885C38.9415 25.3885 38.4609 24.8479 38.4609 24.0253C38.4609 23.2027 38.9388 22.6674 39.6932 22.6674ZM39.6959 25.0141C40.2033 25.0141 40.4986 24.637 40.4986 24.0279C40.4986 23.4189 40.2033 23.0445 39.6932 23.0445C39.1831 23.0445 38.8905 23.4215 38.8905 24.0279C38.8905 24.6344 39.21 25.0141 39.6959 25.0141Z" fill="#585757"/>
<path d="M41.406 22.7175H41.8919L42.5551 23.8223C42.9712 24.5184 43.1484 24.8717 43.1484 24.8717C43.1484 24.8717 43.1242 24.5157 43.1242 23.8249V22.7175H43.535V25.3568H43.049L42.3832 24.2547C41.9752 23.585 41.7845 23.1974 41.7845 23.1974C41.7845 23.1974 41.8168 23.5903 41.8168 24.2521V25.3568H41.406V22.7175Z" fill="#585757"/>
<path d="M46.2814 25.1142H46.2787V25.1406C46.0961 25.2751 45.7874 25.3884 45.4142 25.3884C44.5873 25.3884 44.0128 24.8822 44.0128 24.0332C44.0128 23.1842 44.5981 22.67 45.3901 22.67C45.6451 22.67 45.9324 22.7122 46.1713 22.8467V23.2607C45.9109 23.0998 45.6371 23.0497 45.4062 23.0497C44.837 23.0497 44.4451 23.4373 44.4451 24.0332C44.4451 24.6291 44.8155 25.0114 45.4277 25.0114C45.6022 25.0114 45.7552 24.9771 45.8814 24.9244V24.1967H45.3337V23.8486H46.2841V25.1142H46.2814Z" fill="#585757"/>
<path d="M49.4333 23.055H48.7272V25.3595H48.3164V23.055H47.6157V22.7175H49.4359V23.055H49.4333Z" fill="#585757"/>
<path d="M51.3635 25.0193V25.3568H49.8118V22.7175H51.3447V23.055H50.2225V23.8698H51.2159V24.2072H50.2225V25.022H51.3635V25.0193Z" fill="#585757"/>
<path d="M52.6307 24.3549H52.2764V25.3568H51.8656V22.7175H52.6146C53.2402 22.7175 53.5811 23.0418 53.5811 23.5402C53.5731 23.9172 53.3744 24.1782 53.0496 24.2916L53.7503 25.3568H53.259L52.6281 24.3549H52.6307ZM52.2764 24.0174H52.6468C53.0012 24.0174 53.165 23.8144 53.165 23.5349C53.165 23.2211 52.9824 23.0524 52.6254 23.0524H52.2737V24.0148L52.2764 24.0174Z" fill="#585757"/>
<path d="M54.3033 22.7175H54.7892L55.149 23.6825C55.361 24.2389 55.5356 24.7873 55.5356 24.7873C55.5356 24.7873 55.7181 24.2547 55.9383 23.6825L56.3141 22.7175H56.8L57.047 25.3568H56.639L56.5423 24.3233C56.4913 23.7616 56.4591 23.266 56.4591 23.266C56.4591 23.266 56.2792 23.7643 56.0671 24.3233L55.6913 25.3067H55.3691L55.0067 24.3233C54.7865 23.7116 54.6442 23.2818 54.6442 23.2818C54.6442 23.3846 54.6174 23.8355 54.5798 24.3233L54.4993 25.3568H54.0912L54.2979 22.7175H54.3033Z" fill="#585757"/>
<path d="M60.5183 23.2211C60.2981 23.1025 60.1424 23.0524 59.839 23.0524C59.3155 23.0524 58.8967 23.4294 58.8967 24.0306C58.8967 24.6317 59.2914 25.0141 59.8686 25.0141C60.1075 25.0141 60.3545 24.9402 60.5183 24.8189V25.2276C60.3303 25.3489 60.0592 25.3885 59.831 25.3885C59.0417 25.3885 58.4618 24.8717 58.4618 24.0332C58.4618 23.1948 59.039 22.6806 59.8229 22.6806C60.0699 22.6806 60.3089 22.7122 60.5129 22.8256V23.2211H60.5183Z" fill="#585757"/>
<path d="M62.5587 24.7108H61.474L61.2593 25.3568H60.8243L61.7532 22.7175H62.2929L63.211 25.3568H62.7734L62.5613 24.7108H62.5587ZM62.4459 24.3734L62.4029 24.2389C62.0593 23.2 62.019 23.0207 62.019 23.0207C62.019 23.0207 61.9761 23.2 61.6271 24.2389L61.5841 24.3734H62.4459Z" fill="#585757"/>
<path d="M64.3896 24.3549H64.0353V25.3568H63.6245V22.7175H64.3735C64.9991 22.7175 65.34 23.0418 65.34 23.5402C65.332 23.9172 65.1333 24.1782 64.8085 24.2916L65.5092 25.3568H65.0179L64.387 24.3549H64.3896ZM64.0353 24.0174H64.4058C64.7601 24.0174 64.9239 23.8144 64.9239 23.5349C64.9239 23.2211 64.7413 23.0524 64.3843 23.0524H64.0326V24.0148L64.0353 24.0174Z" fill="#585757"/>
<path d="M67.4421 25.0193V25.3568H65.8904V22.7175H67.4233V23.055H66.3038V23.8698H67.2972V24.2072H66.3038V25.022H67.4448L67.4421 25.0193Z" fill="#585757"/>
<path d="M70.3765 23.2211C70.2154 23.1236 69.9818 23.0576 69.7697 23.0576C69.4744 23.0576 69.2999 23.1974 69.2999 23.4057C69.2999 23.6377 69.5308 23.7432 69.802 23.8592C70.1402 24.0042 70.5161 24.1729 70.5161 24.6344C70.5161 25.0958 70.1322 25.3832 69.614 25.3832C69.3509 25.3832 69.0744 25.3278 68.8811 25.2144V24.7952C69.0851 24.9429 69.3482 25.0272 69.6113 25.0272C69.8986 25.0272 70.0865 24.8901 70.0865 24.6502C70.0865 24.4102 69.8637 24.3206 69.5845 24.1993C69.2543 24.0517 68.8677 23.8855 68.8677 23.4241C68.8677 22.9627 69.2462 22.6964 69.7617 22.6964C69.9657 22.6964 70.1966 22.7307 70.3792 22.823V23.2237L70.3765 23.2211Z" fill="#585757"/>
<path d="M72.5538 25.0193V25.3568H71.0021V22.7175H72.535V23.055H71.4155V23.8698H72.4089V24.2072H71.4155V25.022H72.5565L72.5538 25.0193Z" fill="#585757"/>
<path d="M73.8182 24.3549H73.4639V25.3568H73.0531V22.7175H73.8021C74.4277 22.7175 74.7686 23.0418 74.7686 23.5402C74.7606 23.9172 74.5619 24.1782 74.2371 24.2916L74.9378 25.3568H74.4465L73.8156 24.3549H73.8182ZM73.4639 24.0174H73.8343C74.1887 24.0174 74.3525 23.8144 74.3525 23.5349C74.3525 23.2211 74.1699 23.0524 73.8129 23.0524H73.4612V24.0148L73.4639 24.0174Z" fill="#585757"/>
<path d="M76.5459 25.3568H76.06L75.1553 22.7175H75.5929L75.9365 23.7669C76.1835 24.5263 76.307 24.9982 76.307 24.9982C76.307 24.9982 76.4359 24.5289 76.6909 23.7669L77.0372 22.7175H77.4748L76.5459 25.3568Z" fill="#585757"/>
<path d="M77.9178 22.7175H78.3259V25.3568H77.9178V22.7175Z" fill="#585757"/>
<path d="M80.8817 23.2211C80.6615 23.1025 80.5058 23.0524 80.2024 23.0524C79.6789 23.0524 79.2601 23.4294 79.2601 24.0306C79.2601 24.6317 79.6548 25.0141 80.232 25.0141C80.4709 25.0141 80.7179 24.9402 80.8817 24.8189V25.2276C80.6937 25.3489 80.4226 25.3885 80.1944 25.3885C79.4051 25.3885 78.8252 24.8717 78.8252 24.0332C78.8252 23.1948 79.4024 22.6806 80.1863 22.6806C80.4333 22.6806 80.6723 22.7122 80.8763 22.8256V23.2211H80.8817Z" fill="#585757"/>
<path d="M82.906 25.0193V25.3568H81.3542V22.7175H82.8872V23.055H81.765V23.8698H82.7583V24.2072H81.765V25.022H82.906V25.0193Z" fill="#585757"/>
<path d="M84.8577 23.2211C84.6993 23.1236 84.463 23.0576 84.2509 23.0576C83.9556 23.0576 83.7811 23.1974 83.7811 23.4057C83.7811 23.6377 84.012 23.7432 84.2832 23.8592C84.6214 24.0042 84.9973 24.1729 84.9973 24.6344C84.9973 25.0958 84.6134 25.3832 84.0952 25.3832C83.8321 25.3832 83.5556 25.3278 83.3623 25.2144V24.7952C83.5663 24.9429 83.8294 25.0272 84.0925 25.0272C84.3798 25.0272 84.5677 24.8901 84.5677 24.6502C84.5677 24.4102 84.3449 24.3206 84.0657 24.1993C83.7355 24.0517 83.3489 23.8855 83.3489 23.4241C83.3489 22.9627 83.7274 22.6964 84.2429 22.6964C84.4469 22.6964 84.6778 22.7307 84.8604 22.823V23.2237L84.8577 23.2211Z" fill="#585757"/>
<path d="M30.541 15.0106V21.0011H30.533C25.4804 21.0011 21.3728 25.0352 21.3728 29.9974H15.2705C15.2705 21.7156 22.1004 15.0079 30.533 15.0079H30.541V15.0106Z" fill="#E1690D"/>
<path d="M15.2705 0V0.0131833H15.2625C6.84059 0.0131833 0.0187928 6.70241 0 14.9684V15.0132C0 22.3378 5.33717 28.4285 12.4033 29.7337V23.5639C8.74404 22.3827 6.1023 18.9945 6.1023 15.0132V15C6.1023 10.0378 10.2099 6.00369 15.2625 6.00369H15.2705V5.99051C19.3325 5.99051 22.7715 8.5929 23.9743 12.1867H30.2672C28.9302 5.2496 22.7286 0 15.2705 0Z" fill="#EC6C00"/>
<path d="M15.2705 10.5229C12.7469 10.5229 10.7012 12.532 10.7012 15.0105C10.7012 17.489 12.7469 19.4981 15.2705 19.4981C17.7941 19.4981 19.8399 17.489 19.8399 15.0105C19.8399 12.532 17.7941 10.5229 15.2705 10.5229Z" fill="#E1690D"/>
<path d="M29.784 18.1482C23.534 18.1482 18.4653 23.1262 18.4653 29.2644C18.4653 29.5122 18.4868 29.7548 18.5029 30H21.3702C21.3702 25.0378 25.4777 21.0037 30.5303 21.0037H30.5384V18.1877C30.286 18.1719 30.0364 18.1508 29.7813 18.1508L29.784 18.1482Z" fill="#D2A258"/>
</svg>
